<?xml version="1.0" encoding="utf-8"?>
<!-- Generator: Adobe Illustrator 16.0.0, SVG Export Plug-In . SVG Version: 6.00 Build 0)  -->
<!DOCTYPE svg PUBLIC "-//W3C//DTD SVG 1.1//EN" "http://www.w3.org/Graphics/SVG/1.1/DTD/svg11.dtd">
<svg version="1.1" id="Livello_1" xmlns="http://www.w3.org/2000/svg" xmlns:xlink="http://www.w3.org/1999/xlink" x="0px" y="0px"
	 width="376.729px" height="95.064px" viewBox="0 0 376.729 95.064" enable-background="new 0 0 376.729 95.064"
	 xml:space="preserve">
<g>
	<text transform="matrix(0.9981 0 0 1 74.02 82.25)" fill="#204155" font-family="'NexaBold'" font-size="41.6069">SUCCESSO</text>
	<path fill="#5B9ED5" d="M68.149,53.285c-0.317-0.514-0.775-1.002-1.067-1.306l-1.035-1.045c-1.384-1.355-2.795-2.632-4.191-3.916
		c-1.364-1.289-2.22-2.541-2.848-3.734c-0.282-0.571-0.296-1.007-0.147-1.896c0.151-0.831,0.378-1.96,0.415-2.969
		c0.115-2.029-0.027-4.037-0.392-6.021c-0.723-3.961-2.465-7.806-5.135-10.906c-0.643-0.775-1.421-1.522-2.081-2.153l-1.152-1.018
		l-1.188-0.924c-1.606-1.19-3.322-2.229-5.113-3.102c-3.582-1.738-7.463-1.415-11.431-1.767c0,0-22.666,1.971-32.783-12.368
		c0,0,7.602,19.509,30.518,22.863C18.92,24.894,4.687,12.251,3.525,10.315C1.124,7.168,7.58,28.45,28.688,31.938
		c-7.957,0.387-17.105-5.545-21.251-8.797c-3.544-2.778,3.978,18.299,22.974,19.166c-6.58,2.032-19.781-6.262-20.06-7.812
		c-0.721,2.077,3.959,14.356,20.902,19.144c-7.874,0.229-12.612-5.038-16.956-6.199c-1.239,2.324,11.691,16.663,18.943,15.501
		c-4.76,2.712-13.066-4.612-14.822-4.612c0,0,14.752,28.923,23.488,30.244c-1.72-0.299-0.038,0.137,1.681,0.506
		c1.725,0.363,3.485,0.567,5.251,0.637c0.884,0.04,1.77,0.027,2.654-0.004c0.887-0.038,1.771-0.112,2.652-0.224
		c0.88-0.125,1.763-0.255,2.63-0.461c0.88-0.177,1.723-0.428,2.599-0.701c0.891-0.312,1.751-0.805,2.445-1.525
		c0.692-0.722,1.153-1.67,1.344-2.637c0.2-0.968,0.157-1.947-0.008-2.878c-0.158-0.92-0.471-1.861-0.847-2.666
		c-0.328-0.721-0.43-1.421-0.315-2.101c0.059-0.335,0.186-0.648,0.348-0.901c0.097-0.139,0.145-0.191,0.282-0.313l0.511-0.443
		c0.37-0.327,0.766-0.797,1-1.349c0.231-0.564,0.31-1.114,0.289-1.688c-0.013-0.57-0.158-1.283-0.558-1.893
		c0.465-0.302,0.901-0.633,1.39-1.067c0.233-0.227,0.444-0.485,0.629-0.832c0.185-0.349,0.271-0.785,0.264-1.172
		c-0.039-0.771-0.287-1.295-0.491-1.77c-0.419-0.921-0.921-1.777-1.223-2.511c-0.067-0.176-0.117-0.342-0.13-0.44
		c-0.007-0.038-0.007-0.056-0.004-0.065c0,0,0,0.001-0.001,0.003c-0.023,0.021-0.482-1.002-0.111-1.231l1.177-0.772l0.64-0.437
		c0.199-0.155,0.359-0.249,0.599-0.46c0.873-0.733,1.639-0.884,2.048-2.127C69.072,55.82,68.819,54.332,68.149,53.285z"/>
	<path fill="#5B9ED5" d="M308.578,53.124c0.318-0.514,0.777-1.002,1.068-1.306l1.035-1.045c1.383-1.355,2.795-2.632,4.191-3.916
		c1.363-1.289,2.219-2.541,2.848-3.734c0.281-0.571,0.297-1.007,0.146-1.896c-0.15-0.831-0.377-1.96-0.414-2.969
		c-0.115-2.029,0.027-4.037,0.391-6.021c0.723-3.961,2.465-7.806,5.135-10.906c0.645-0.775,1.422-1.522,2.082-2.153l1.152-1.018
		l1.189-0.924c1.605-1.19,3.32-2.229,5.113-3.102c3.58-1.738,7.461-1.415,11.43-1.767c0,0,22.666,1.971,32.783-12.368
		c0,0-7.6,19.509-30.516,22.863c11.598,1.869,25.83-10.773,26.992-12.709c2.4-3.147-4.055,18.135-25.164,21.623
		c7.957,0.387,17.105-5.545,21.25-8.797c3.545-2.778-3.977,18.299-22.973,19.166c6.58,2.032,19.781-6.262,20.059-7.812
		c0.723,2.077-3.959,14.356-20.902,19.144c7.875,0.229,12.613-5.038,16.957-6.199c1.24,2.324-11.691,16.663-18.943,15.501
		c4.76,2.712,13.066-4.612,14.822-4.612c0,0-14.752,28.923-23.49,30.244c1.721-0.299,0.039,0.137-1.68,0.506
		c-1.725,0.363-3.486,0.567-5.25,0.637c-0.885,0.04-1.771,0.027-2.656-0.004c-0.885-0.038-1.771-0.112-2.652-0.224
		c-0.879-0.125-1.762-0.255-2.629-0.461c-0.881-0.177-1.723-0.428-2.598-0.701c-0.893-0.312-1.752-0.805-2.447-1.525
		c-0.691-0.722-1.152-1.67-1.344-2.637c-0.199-0.968-0.156-1.947,0.008-2.878c0.16-0.92,0.471-1.861,0.848-2.666
		c0.328-0.721,0.43-1.421,0.314-2.101c-0.057-0.335-0.184-0.648-0.348-0.901c-0.096-0.139-0.145-0.191-0.281-0.313l-0.512-0.443
		c-0.369-0.327-0.766-0.797-0.998-1.349c-0.232-0.564-0.311-1.114-0.291-1.688c0.014-0.57,0.16-1.283,0.559-1.893
		c-0.465-0.302-0.902-0.633-1.391-1.067c-0.232-0.227-0.443-0.485-0.627-0.832c-0.186-0.349-0.271-0.785-0.266-1.172
		c0.039-0.771,0.287-1.295,0.492-1.77c0.418-0.921,0.92-1.777,1.223-2.511c0.066-0.176,0.117-0.342,0.131-0.44
		c0.006-0.038,0.006-0.056,0.002-0.065l0.002,0.003c0.023,0.021,0.482-1.002,0.111-1.231l-1.178-0.772l-0.639-0.437
		c-0.199-0.155-0.359-0.249-0.598-0.46c-0.875-0.733-1.641-0.884-2.049-2.127C307.656,55.659,307.91,54.171,308.578,53.124z"/>
	<text transform="matrix(0.9981 0 0 1 76.1724 44.603)" fill="#204155" font-family="'NexaBold'" font-size="32.6911">I PASSI PER IL</text>
</g>
</svg>
