<?xml version="1.0" encoding="iso-8859-1"?>
<!-- Generator: Adobe Illustrator 16.0.0, SVG Export Plug-In . SVG Version: 6.00 Build 0)  -->
<!DOCTYPE svg PUBLIC "-//W3C//DTD SVG 1.0//EN" "http://www.w3.org/TR/2001/REC-SVG-20010904/DTD/svg10.dtd">
<svg version="1.0" id="Livello_1" xmlns="http://www.w3.org/2000/svg" xmlns:xlink="http://www.w3.org/1999/xlink" x="0px" y="0px"
	 width="708.512px" height="279.471px" viewBox="0 0 708.512 279.471" enable-background="new 0 0 708.512 279.471"
	 xml:space="preserve">
<g>
	<path fill="#5B9ED5" d="M144.447,149.99c-0.642-1.039-1.568-2.024-2.156-2.642l-2.09-2.109c-2.797-2.733-5.647-5.315-8.471-7.906
		c-2.754-2.603-4.482-5.133-5.751-7.545c-0.569-1.15-0.597-2.032-0.299-3.835c0.307-1.677,0.764-3.958,0.842-5.998
		c0.229-4.101-0.059-8.151-0.794-12.159c-1.459-7.999-4.979-15.765-10.373-22.032c-1.297-1.566-2.869-3.077-4.203-4.348
		l-2.328-2.056l-2.4-1.866c-3.244-2.407-6.712-4.502-10.329-6.266c-7.237-3.516-15.076-2.858-23.093-3.571
		c0,0-45.788,3.983-66.226-24.983c0,0,15.356,39.409,61.651,46.187c-23.43,3.777-52.184-21.765-54.53-25.672
		c-4.851-6.359,8.191,36.633,50.834,43.676c-16.078,0.787-34.557-11.198-42.931-17.769c-7.16-5.61,8.034,36.964,46.41,38.719
		c-13.294,4.105-39.963-12.648-40.524-15.781c-1.455,4.199,7.998,29,42.227,38.675c-15.908,0.462-25.479-10.176-34.254-12.527
		c-2.503,4.7,23.619,33.664,38.268,31.316c-9.617,5.477-26.396-9.32-29.945-9.32c0,0,29.803,58.429,47.451,61.102
		c-3.473-0.608-0.076,0.273,3.396,1.021c3.483,0.729,7.04,1.145,10.608,1.287c1.785,0.082,3.576,0.055,5.361-0.013
		c1.791-0.074,3.578-0.22,5.359-0.449c1.775-0.249,3.56-0.511,5.313-0.932c1.776-0.354,3.479-0.862,5.249-1.416
		c1.799-0.628,3.535-1.626,4.938-3.083c1.399-1.457,2.329-3.37,2.714-5.321c0.404-1.961,0.318-3.937-0.015-5.814
		c-0.319-1.864-0.95-3.766-1.71-5.388c-0.663-1.459-0.867-2.872-0.64-4.245c0.12-0.679,0.377-1.31,0.703-1.824
		c0.197-0.277,0.292-0.386,0.571-0.629l1.032-0.891c0.748-0.664,1.548-1.612,2.021-2.729c0.467-1.138,0.625-2.247,0.584-3.408
		c-0.027-1.156-0.322-2.592-1.127-3.822c0.939-0.612,1.82-1.279,2.807-2.159c0.47-0.457,0.898-0.981,1.27-1.677
		c0.374-0.71,0.548-1.59,0.532-2.371c-0.077-1.558-0.579-2.614-0.991-3.574c-0.846-1.858-1.859-3.591-2.472-5.069
		c-0.133-0.359-0.234-0.695-0.261-0.893c-0.013-0.075-0.013-0.111-0.007-0.133c0,0,0,0.009-0.001,0.009
		c-0.047,0.041-0.976-2.027-0.227-2.491l2.377-1.561l1.292-0.878c0.403-0.317,0.727-0.506,1.211-0.931
		c1.763-1.481,3.309-1.788,4.137-4.295C146.312,155.109,145.801,152.109,144.447,149.99z"/>
	<path fill="#5B9ED5" d="M564.061,149.666c0.644-1.037,1.567-2.024,2.159-2.641l2.089-2.11c2.796-2.738,5.647-5.314,8.469-7.909
		c2.756-2.605,4.483-5.131,5.752-7.541c0.57-1.155,0.598-2.036,0.297-3.835c-0.305-1.68-0.758-3.957-0.837-5.996
		c-0.229-4.101,0.054-8.151,0.79-12.16c1.46-8.004,4.979-15.769,10.371-22.034c1.303-1.565,2.874-3.077,4.206-4.351l2.329-2.051
		l2.402-1.868c3.243-2.406,6.71-4.501,10.329-6.267c7.234-3.514,15.076-2.858,23.091-3.57c0,0,45.79,3.982,66.228-24.982
		c0,0-15.356,39.405-61.652,46.188c23.432,3.771,52.182-21.764,54.528-25.678c4.852-6.356-8.188,36.638-50.828,43.68
		c16.073,0.781,34.548-11.201,42.929-17.77c7.154-5.611-8.039,36.965-46.415,38.722c13.293,4.103,39.963-12.649,40.526-15.781
		c1.454,4.193-7.996,28.999-42.225,38.673c15.903,0.461,25.479-10.179,34.252-12.526c2.504,4.699-23.62,33.664-38.271,31.312
		c9.616,5.48,26.396-9.315,29.95-9.315c0,0-29.808,58.429-47.455,61.098c3.474-0.604,0.076,0.274-3.394,1.021
		c-3.485,0.735-7.045,1.145-10.606,1.292c-1.785,0.078-3.575,0.054-5.364-0.013c-1.791-0.073-3.581-0.227-5.359-0.454
		c-1.776-0.247-3.56-0.512-5.311-0.932c-1.779-0.354-3.48-0.864-5.252-1.412c-1.797-0.632-3.538-1.628-4.938-3.082
		c-1.398-1.459-2.328-3.371-2.717-5.325c-0.404-1.957-0.316-3.938,0.015-5.812c0.322-1.863,0.954-3.766,1.714-5.389
		c0.66-1.457,0.868-2.873,0.637-4.247c-0.117-0.675-0.377-1.306-0.703-1.819c-0.194-0.279-0.292-0.387-0.57-0.63l-1.033-0.897
		c-0.748-0.662-1.545-1.604-2.018-2.725c-0.47-1.141-0.625-2.252-0.587-3.41c0.025-1.15,0.322-2.593,1.13-3.822
		c-0.939-0.611-1.823-1.274-2.808-2.154c-0.474-0.463-0.898-0.984-1.271-1.682c-0.374-0.705-0.545-1.585-0.535-2.371
		c0.08-1.555,0.578-2.611,0.993-3.574c0.847-1.855,1.863-3.592,2.473-5.069c0.135-0.356,0.237-0.689,0.262-0.893
		c0.015-0.075,0.015-0.11,0.005-0.131c0,0,0,0.006,0.003,0.006c0.046,0.046,0.974-2.026,0.227-2.487l-2.38-1.563l-1.289-0.878
		c-0.403-0.317-0.726-0.506-1.21-0.931c-1.764-1.48-3.312-1.785-4.137-4.294C562.201,154.787,562.712,151.781,564.061,149.666z"/>
	<g>
		<path fill="#154A68" d="M166.832,220.998V111.623h20.429v109.375H166.832z"/>
		<path fill="#154A68" d="M258.061,188.811h-30.878v32.188h-20.584V111.623c17.153,0,34.308-0.156,51.462-0.156
			C311.394,111.467,311.549,188.811,258.061,188.811z M227.183,169.904h30.878c26.354,0,26.198-38.75,0-38.75h-30.878V169.904z"/>
		<path fill="#154A68" d="M363.479,188.811h-30.878v32.188h-20.584V111.623c17.153,0,34.308-0.156,51.462-0.156
			C416.812,111.467,416.967,188.811,363.479,188.811z M332.601,169.904h30.878c26.354,0,26.198-38.75,0-38.75h-30.878V169.904z"/>
		<path fill="#154A68" d="M417.59,220.998V111.623h20.429v109.375H417.59z"/>
		<path fill="#154A68" d="M527.842,138.029c-3.743-6.25-14.035-12.188-25.887-12.188c-15.283,0-22.612,6.406-22.612,14.531
			c0,9.531,11.228,12.188,24.327,13.75c22.768,2.813,43.977,8.75,43.977,34.844c0,24.375-21.521,34.844-45.848,34.844
			c-22.3,0-39.454-6.875-47.563-26.875l17.154-8.906c4.834,12.031,17.466,17.344,30.721,17.344c12.943,0,25.107-4.531,25.107-16.406
			c0-10.313-10.761-14.531-25.263-16.094c-22.301-2.656-42.885-8.594-42.885-33.125c0-22.5,22.144-31.719,42.261-31.875
			c16.998,0,34.619,4.844,42.885,21.719L527.842,138.029z"/>
	</g>
</g>
</svg>
