<?xml version="1.0" encoding="utf-8"?>
<!-- Generator: Adobe Illustrator 16.0.0, SVG Export Plug-In . SVG Version: 6.00 Build 0)  -->
<svg version="1.2" baseProfile="tiny" id="Livello_1"
	 xmlns="http://www.w3.org/2000/svg" xmlns:xlink="http://www.w3.org/1999/xlink" x="0px" y="0px" width="376.729px"
	 height="95.064px" viewBox="0 0 376.729 95.064" xml:space="preserve">
<g>
	<g>
		<path fill="#204155" d="M93.998,60.154c-0.997-1.664-3.738-3.245-6.895-3.245c-4.07,0-6.022,1.706-6.022,3.87
			c0,2.538,2.99,3.245,6.479,3.661c6.064,0.749,11.713,2.33,11.713,9.279c0,6.491-5.732,9.279-12.211,9.279
			c-5.939,0-10.508-1.831-12.668-7.157l4.568-2.372c1.288,3.204,4.652,4.619,8.183,4.619c3.447,0,6.687-1.207,6.687-4.369
			c0-2.746-2.866-3.87-6.729-4.286c-5.939-0.707-11.422-2.288-11.422-8.821c0-5.992,5.897-8.447,11.255-8.488
			c4.527,0,9.221,1.29,11.422,5.784L93.998,60.154z"/>
		<path fill="#204155" d="M129.006,53.164V69.85c0,8.614-5.275,13.024-12.584,13.024c-6.978,0-12.917-4.244-12.917-13.024V53.164
			h5.441V69.85c0,5.243,2.991,8.031,7.518,8.031c4.527,0,7.102-3.037,7.102-8.031V53.164H129.006z"/>
		<path fill="#204155" d="M159.986,78.588c-2.991,2.955-6.854,4.328-11.048,4.328c-10.799,0-15.368-7.448-15.409-15.021
			c-0.042-7.615,4.901-15.354,15.409-15.354c3.946,0,7.684,1.498,10.674,4.452l-3.655,3.537c-1.911-1.873-4.486-2.746-7.02-2.746
			c-7.02,0-10.051,5.242-10.01,10.111c0.042,4.826,2.824,9.861,10.01,9.861c2.534,0,5.399-1.04,7.31-2.954L159.986,78.588z"/>
		<path fill="#204155" d="M187.394,78.588c-2.99,2.955-6.853,4.328-11.048,4.328c-10.799,0-15.368-7.448-15.409-15.021
			c-0.042-7.615,4.901-15.354,15.409-15.354c3.945,0,7.684,1.498,10.675,4.452l-3.655,3.537c-1.911-1.873-4.486-2.746-7.02-2.746
			c-7.02,0-10.051,5.242-10.01,10.111c0.042,4.826,2.824,9.861,10.01,9.861c2.533,0,5.399-1.04,7.311-2.954L187.394,78.588z"/>
		<path fill="#204155" d="M212.142,82.25h-21.764c0-9.695,0-19.433,0-29.128h21.764v5.326h-16.322v6.7h15.741v5.117h-15.741v6.575
			h16.322V82.25z"/>
		<path fill="#204155" d="M235.189,60.154c-0.997-1.664-3.738-3.245-6.896-3.245c-4.07,0-6.022,1.706-6.022,3.87
			c0,2.538,2.991,3.245,6.479,3.661c6.064,0.749,11.713,2.33,11.713,9.279c0,6.491-5.731,9.279-12.211,9.279
			c-5.939,0-10.509-1.831-12.668-7.157l4.568-2.372c1.288,3.204,4.652,4.619,8.183,4.619c3.447,0,6.687-1.207,6.687-4.369
			c0-2.746-2.865-3.87-6.729-4.286c-5.939-0.707-11.422-2.288-11.422-8.821c0-5.992,5.898-8.447,11.256-8.488
			c4.527,0,9.221,1.29,11.422,5.784L235.189,60.154z"/>
		<path fill="#204155" d="M262.639,60.154c-0.997-1.664-3.738-3.245-6.896-3.245c-4.07,0-6.022,1.706-6.022,3.87
			c0,2.538,2.991,3.245,6.479,3.661c6.064,0.749,11.713,2.33,11.713,9.279c0,6.491-5.731,9.279-12.211,9.279
			c-5.939,0-10.509-1.831-12.668-7.157l4.568-2.372c1.288,3.204,4.652,4.619,8.183,4.619c3.447,0,6.687-1.207,6.687-4.369
			c0-2.746-2.865-3.87-6.729-4.286c-5.939-0.707-11.422-2.288-11.422-8.821c0-5.992,5.898-8.447,11.256-8.488
			c4.527,0,9.221,1.29,11.422,5.784L262.639,60.154z"/>
		<path fill="#204155" d="M300.721,67.853c-0.084,7.531-4.693,15.063-14.911,15.063s-14.952-7.365-14.952-15.021
			s4.9-15.354,14.952-15.354C295.819,52.54,300.804,60.238,300.721,67.853z M276.257,67.978c0.124,4.785,2.699,9.903,9.553,9.903
			c6.853,0,9.428-5.16,9.511-9.945c0.084-4.91-2.658-10.402-9.511-10.402C278.956,57.533,276.132,63.067,276.257,67.978z"/>
	</g>
	<path fill="#5B9ED5" d="M68.149,53.285c-0.317-0.514-0.775-1.002-1.067-1.306l-1.035-1.045c-1.384-1.355-2.795-2.632-4.191-3.916
		c-1.364-1.289-2.22-2.541-2.848-3.734c-0.282-0.571-0.296-1.007-0.147-1.896c0.151-0.831,0.378-1.96,0.415-2.969
		c0.115-2.029-0.027-4.037-0.392-6.021c-0.723-3.961-2.465-7.806-5.135-10.906c-0.643-0.775-1.421-1.522-2.081-2.153l-1.152-1.018
		l-1.188-0.924c-1.606-1.19-3.322-2.229-5.113-3.102c-3.582-1.738-7.463-1.415-11.431-1.767c0,0-22.666,1.971-32.783-12.368
		c0,0,7.602,19.509,30.518,22.863C18.92,24.894,4.687,12.251,3.525,10.315C1.124,7.168,7.58,28.45,28.688,31.938
		c-7.957,0.387-17.105-5.545-21.251-8.797c-3.544-2.778,3.978,18.299,22.974,19.166c-6.58,2.032-19.781-6.262-20.06-7.812
		c-0.721,2.077,3.959,14.356,20.902,19.144c-7.874,0.229-12.612-5.038-16.956-6.199c-1.239,2.324,11.691,16.663,18.943,15.501
		c-4.76,2.712-13.066-4.612-14.822-4.612c0,0,14.752,28.923,23.488,30.244c-1.72-0.299-0.038,0.137,1.681,0.506
		c1.725,0.363,3.485,0.567,5.251,0.637c0.884,0.04,1.77,0.027,2.654-0.004c0.887-0.038,1.771-0.112,2.652-0.224
		c0.88-0.125,1.763-0.255,2.63-0.461c0.88-0.177,1.723-0.428,2.599-0.701c0.891-0.312,1.751-0.805,2.445-1.525
		c0.692-0.722,1.153-1.67,1.344-2.637c0.2-0.968,0.157-1.947-0.008-2.878c-0.158-0.92-0.471-1.861-0.847-2.666
		c-0.328-0.721-0.43-1.421-0.315-2.101c0.059-0.335,0.186-0.648,0.348-0.901c0.097-0.139,0.145-0.191,0.282-0.313l0.511-0.443
		c0.37-0.327,0.766-0.797,1-1.349c0.231-0.564,0.31-1.114,0.289-1.688c-0.013-0.57-0.158-1.283-0.558-1.893
		c0.465-0.302,0.901-0.633,1.39-1.067c0.233-0.227,0.444-0.485,0.629-0.832c0.185-0.349,0.271-0.785,0.264-1.172
		c-0.039-0.771-0.287-1.295-0.491-1.77c-0.419-0.921-0.921-1.777-1.223-2.511c-0.067-0.176-0.117-0.342-0.13-0.44
		c-0.007-0.038-0.007-0.056-0.004-0.065c0,0,0,0.001-0.001,0.003c-0.023,0.021-0.482-1.002-0.111-1.231l1.177-0.772l0.64-0.437
		c0.199-0.155,0.359-0.249,0.599-0.46c0.873-0.733,1.639-0.884,2.048-2.127C69.072,55.82,68.819,54.332,68.149,53.285z"/>
	<path fill="#5B9ED5" d="M308.578,53.124c0.318-0.514,0.777-1.002,1.068-1.306l1.035-1.045c1.383-1.355,2.795-2.632,4.191-3.916
		c1.363-1.289,2.219-2.541,2.848-3.734c0.281-0.571,0.297-1.007,0.146-1.896c-0.15-0.831-0.377-1.96-0.414-2.969
		c-0.115-2.029,0.027-4.037,0.391-6.021c0.723-3.961,2.465-7.806,5.135-10.906c0.645-0.775,1.422-1.522,2.082-2.153l1.152-1.018
		l1.189-0.924c1.605-1.19,3.32-2.229,5.113-3.102c3.58-1.738,7.461-1.415,11.43-1.767c0,0,22.666,1.971,32.783-12.368
		c0,0-7.6,19.509-30.516,22.863c11.598,1.869,25.83-10.773,26.992-12.709c2.4-3.147-4.055,18.135-25.164,21.623
		c7.957,0.387,17.105-5.545,21.25-8.797c3.545-2.778-3.977,18.299-22.973,19.166c6.58,2.032,19.781-6.262,20.059-7.812
		c0.723,2.077-3.959,14.356-20.902,19.144c7.875,0.229,12.613-5.038,16.957-6.199c1.24,2.324-11.691,16.663-18.943,15.501
		c4.76,2.712,13.066-4.612,14.822-4.612c0,0-14.752,28.923-23.49,30.244c1.721-0.299,0.039,0.137-1.68,0.506
		c-1.725,0.363-3.486,0.567-5.25,0.637c-0.885,0.04-1.771,0.027-2.656-0.004c-0.885-0.038-1.771-0.112-2.652-0.224
		c-0.879-0.125-1.762-0.255-2.629-0.461c-0.881-0.177-1.723-0.428-2.598-0.701c-0.893-0.312-1.752-0.805-2.447-1.525
		c-0.691-0.722-1.152-1.67-1.344-2.637c-0.199-0.968-0.156-1.947,0.008-2.878c0.16-0.92,0.471-1.861,0.848-2.666
		c0.328-0.721,0.43-1.421,0.314-2.101c-0.057-0.335-0.184-0.648-0.348-0.901c-0.096-0.139-0.145-0.191-0.281-0.313l-0.512-0.443
		c-0.369-0.327-0.766-0.797-0.998-1.349c-0.232-0.564-0.311-1.114-0.291-1.688c0.014-0.57,0.16-1.283,0.559-1.893
		c-0.465-0.302-0.902-0.633-1.391-1.067c-0.232-0.227-0.443-0.485-0.627-0.832c-0.186-0.349-0.271-0.785-0.266-1.172
		c0.039-0.771,0.287-1.295,0.492-1.77c0.418-0.921,0.92-1.777,1.223-2.511c0.066-0.176,0.117-0.342,0.131-0.44
		c0.006-0.038,0.006-0.056,0.002-0.065l0.002,0.003c0.023,0.021,0.482-1.002,0.111-1.231l-1.178-0.772l-0.639-0.437
		c-0.199-0.155-0.359-0.249-0.598-0.46c-0.875-0.733-1.641-0.884-2.049-2.127C307.656,55.659,307.91,54.171,308.578,53.124z"/>
	<g>
		<path fill="#204155" d="M77.804,44.603V21.724h4.273v22.879H77.804z"/>
		<path fill="#204155" d="M104.394,37.87h-6.459v6.733h-4.306V21.724c3.588,0,7.177-0.033,10.766-0.033
			C115.551,21.691,115.584,37.87,104.394,37.87z M97.935,33.915h6.459c5.513,0,5.48-8.105,0-8.105h-6.459V33.915z"/>
		<path fill="#204155" d="M132.356,40.289h-11.94l-1.958,4.314h-4.665l10.244-22.879h4.698l10.244,22.879h-4.698L132.356,40.289z
			 M126.386,26.529l-4.241,9.74h8.482L126.386,26.529z"/>
		<path fill="#204155" d="M155.13,27.248c-0.783-1.307-2.936-2.549-5.416-2.549c-3.197,0-4.73,1.34-4.73,3.04
			c0,1.994,2.349,2.549,5.089,2.876c4.763,0.588,9.2,1.83,9.2,7.289c0,5.099-4.502,7.289-9.591,7.289
			c-4.665,0-8.253-1.438-9.95-5.622l3.589-1.863c1.011,2.517,3.654,3.628,6.427,3.628c2.708,0,5.252-0.948,5.252-3.432
			c0-2.157-2.251-3.04-5.285-3.367c-4.665-0.556-8.972-1.797-8.972-6.929c0-4.707,4.633-6.635,8.841-6.668
			c3.556,0,7.242,1.013,8.971,4.543L155.13,27.248z"/>
		<path fill="#204155" d="M177.154,27.248c-0.782-1.307-2.936-2.549-5.415-2.549c-3.197,0-4.73,1.34-4.73,3.04
			c0,1.994,2.349,2.549,5.089,2.876c4.764,0.588,9.2,1.83,9.2,7.289c0,5.099-4.502,7.289-9.591,7.289
			c-4.665,0-8.253-1.438-9.95-5.622l3.589-1.863c1.011,2.517,3.654,3.628,6.427,3.628c2.708,0,5.252-0.948,5.252-3.432
			c0-2.157-2.251-3.04-5.285-3.367c-4.665-0.556-8.972-1.797-8.972-6.929c0-4.707,4.633-6.635,8.841-6.668
			c3.556,0,7.243,1.013,8.971,4.543L177.154,27.248z"/>
		<path fill="#204155" d="M185.118,44.603V21.724h4.274v22.879H185.118z"/>
		<path fill="#204155" d="M211.709,37.87h-6.459v6.733h-4.307V21.724c3.589,0,7.177-0.033,10.766-0.033
			C222.866,21.691,222.898,37.87,211.709,37.87z M205.25,33.915h6.459c5.514,0,5.48-8.105,0-8.105h-6.459V33.915z"/>
		<path fill="#204155" d="M240.486,44.603h-17.095c0-7.615,0-15.264,0-22.879h17.095v4.184h-12.821v5.262h12.364v4.02h-12.364v5.164
			h12.821V44.603z"/>
		<path fill="#204155" d="M264.532,44.603h-5.122l-6.654-7.648h-4.144v7.648h-4.307V21.691c3.621,0,7.243,0.033,10.864,0.033
			c5.383,0.033,8.221,3.628,8.221,7.583c0,3.138-1.436,6.308-5.774,7.19l6.916,7.812V44.603z M248.612,25.744v7.321h6.558
			c2.74,0,3.914-1.83,3.914-3.661c0-1.83-1.207-3.661-3.914-3.661H248.612z"/>
		<path fill="#204155" d="M273.834,44.603V21.724h4.274v22.879H273.834z"/>
		<path fill="#204155" d="M286.918,21.724v18.892h11.744v3.987h-16.051V21.724H286.918z"/>
	</g>
</g>
</svg>
