<?xml version="1.0" encoding="iso-8859-1"?>
<!-- Generator: Adobe Illustrator 16.0.0, SVG Export Plug-In . SVG Version: 6.00 Build 0)  -->
<!DOCTYPE svg PUBLIC "-//W3C//DTD SVG 1.0//EN" "http://www.w3.org/TR/2001/REC-SVG-20010904/DTD/svg10.dtd">
<svg version="1.0" id="Layer_1" xmlns="http://www.w3.org/2000/svg" xmlns:xlink="http://www.w3.org/1999/xlink" x="0px" y="0px"
	 width="601px" height="456px" viewBox="156.445 46.141 601 456" enable-background="new 156.445 46.141 601 456"
	 xml:space="preserve">
<path fill="#EDEDED" d="M322.584,381.992c0,13.188-10.664,23.854-23.854,23.854h-9.542c-10.29-13.844-17.773-29.934-21.702-47.332
	c1.216-0.188,2.526-0.28,3.835-0.28h-3.929c-2.058-8.98-3.087-18.334-3.087-27.97c0-23.946,6.548-46.305,18.054-65.388h13.002
	c13.19,0,23.854,10.664,23.854,23.76l0,0c0,11.6-8.325,21.235-19.27,23.385c4.583,1.684,8.512,4.678,11.318,8.604
	c2.807,3.93,4.396,8.701,4.396,13.846c0,13.189-10.664,23.854-23.76,23.854h6.922c6.548,0,12.535,2.713,16.837,7.016
	C319.871,369.457,322.584,375.351,322.584,381.992z"/>
<rect id="XMLID_2124_" x="497.277" y="262.085" fill="#EDEDED" width="40.783" height="163.702"/>
<path id="XMLID_630_" fill="#FFFFFF" stroke="#236D9B" stroke-width="2.8346" stroke-miterlimit="10" d="M229.23,287.5
	c-10.092,4.002-12.945,17.971-8.459,27.864c4.485,9.906,13.967,16.465,23.264,22.088c-8.319,6.811-12.265,18.551-9.767,29.01
	c2.513,10.449,11.342,19.123,21.847,21.42c-20.144,11.428-6.352,41.062,11.176,43.351c31.113,4.063,61.121,5.556,90.256,6.46
	c28.404,0.882,61.773,4.982,88.772-5.252c8.984-3.41,18.311-9.838,27.932-12.25c4.787-1.205,9.639-1.42,14.564,0.225
	c4.586-39.783,1.207-82.254,1.576-122.411c0.043-3.876,1.42-10.503,0.143-14.11c-1.578-4.441,4.844-9.94,0.713-12.752
	c-3.678-2.498-7.645-3.724-11.277-6.265c-2.758-1.931-9.525-1.138-14.892-4.253c-14.342-8.327-22.122-21.553-30.997-35.479
	c-9.396-14.038-18.85-28.161-25.662-43.604c-6.814-15.458-10.931-32.463-9.098-49.254c0.822-7.523,2.824-15.046,1.915-22.555
	c-0.667-5.564-3.562-11.284-8.063-14.294c-1.334-0.894-2.697-1.505-4.06-1.888c-14.934-4.159-31.284,19.986-37.118,30.574
	c-9.567,17.389-13.258,38.197-8.915,57.672c1.731,7.779,4.599,15.288,6.019,23.137c1.419,7.85,1.249,16.367-2.74,23.265
	c-2.967,5.138-7.422,7.822-12.519,9.169c-8.005,2.144-17.8,4.84-25.736,4.001c-11.334-1.197-21.994,0.108-33.982,0.045
	c-7.964-0.042-15.808-1.854-23.77-1.825c-9.767,0.027-20.215-0.731-28.221,4.848c-7.437,5.194-11.497,14.819-10.021,23.774
	C213.589,277.15,220.529,284.972,229.23,287.5z"/>
<path id="XMLID_2122_" fill="#FFFFFF" stroke="#236D9B" stroke-width="2.7477" stroke-miterlimit="10" d="M328.412,386.874
	l-72.296,1.007c-11.382,0-21.337-10.078-24.175-26.921l0,0c0-12.821,6.193-22.944,17.576-22.944l78.44-0.244
	c11.382,0,25.488,13.275,25.488,26.098v-2.727C354.778,382.142,339.794,386.874,328.412,386.874z"/>
<path id="XMLID_3_" fill="#FFFFFF" stroke="#236D9B" stroke-width="2.7477" stroke-miterlimit="10" d="M218.717,305.631"/>
<path id="XMLID_2_" fill="#FFFFFF" stroke="#236D9B" stroke-width="2.7477" stroke-miterlimit="10" d="M246.633,288.064h66.479
	c11.382,0,27.333,7.742,29.538,23.188l0,0c-0.081,12.822-5.902,26.199-17.205,26.199h-81.409"/>
<path id="XMLID_2180_" fill="#FFFFFF" stroke="#236D9B" stroke-width="2.4524" stroke-miterlimit="10" d="M368.445,410.063
	c0,6.364-3.977,14.225-7,18.407c-4.48,3.465-8.401,4.78-12.902,4.78h-72.877c-15.222,0-29.479-11.775-29.479-27.404
	c0-6.366,3.255-12.239,7.25-16.215c4.552-1.962,3.659-1.181,7.388-1.815c0.643-0.092,14.198-0.941,14.841-0.941h66.984
	C351.652,386.874,368.445,391.138,368.445,410.063z"/>
<path id="XMLID_2128_" fill="#FFFFFF" stroke="#236D9B" stroke-width="2.9106" stroke-miterlimit="10" d="M319.55,288.064h-84.641
	c-12.771,0-23.099-10.367-23.099-23.188l0,0c0-12.822,14.025-25.463,26.797-25.463l80.942,2.275
	c12.771,0,23.099,10.366,23.099,23.188l0,0C342.558,277.699,332.231,288.064,319.55,288.064z"/>
<rect id="XMLID_2126_" x="479.97" y="262.085" fill="#FFFFFF" stroke="#640917" stroke-width="3" stroke-linecap="round" stroke-miterlimit="10" width="40.785" height="163.702"/>
<rect id="XMLID_2120_" x="479.97" y="262.085" fill="none" stroke="#236D9B" stroke-width="3" stroke-linecap="round" stroke-miterlimit="10" width="40.785" height="163.702"/>
<rect id="XMLID_2119_" x="511.027" y="254.041" fill="#6EBDFF" stroke="#350A63" stroke-width="3" stroke-linecap="round" stroke-miterlimit="10" width="195.6" height="197.656"/>
<circle id="XMLID_2043_" fill="none" stroke="#236D9B" stroke-width="3" stroke-linecap="round" stroke-miterlimit="10" cx="546.386" cy="422.511" r="9.635"/>
<path id="XMLID_2042_" fill="none" stroke="#236D9B" stroke-width="3" stroke-linecap="round" stroke-miterlimit="10" d="
	M706.064,451.697H511.027V254.041h195.6v197.002C706.626,451.417,706.345,451.697,706.064,451.697z"/>
</svg>
