<svg enable-background="new 156.445 46.141 601 456" height="456" viewBox="156.445 46.141 601 456" width="601" xmlns="http://www.w3.org/2000/svg"><path d="m322.584 381.992c0 13.188-10.664 23.854-23.854 23.854h-9.542c-10.29-13.844-17.773-29.934-21.702-47.332 1.216-.188 2.526-.28 3.835-.28h-3.929c-2.058-8.98-3.087-18.334-3.087-27.97 0-23.946 6.548-46.305 18.054-65.388h13.002c13.19 0 23.854 10.664 23.854 23.76 0 11.6-8.325 21.235-19.27 23.385 4.583 1.684 8.512 4.678 11.318 8.604 2.807 3.93 4.396 8.701 4.396 13.846 0 13.189-10.664 23.854-23.76 23.854h6.922c6.548 0 12.535 2.713 16.837 7.016 4.213 4.116 6.926 10.01 6.926 16.651z" fill="#ededed"/><path d="m497.277 262.085h40.783v163.702h-40.783z" fill="#ededed"/><g stroke-miterlimit="10"><g fill="#fff"><path d="m229.23 287.5c-10.092 4.002-12.945 17.971-8.459 27.864 4.485 9.906 13.967 16.465 23.264 22.088-8.319 6.811-12.265 18.551-9.767 29.01 2.513 10.449 11.342 19.123 21.847 21.42-20.144 11.428-6.352 41.062 11.176 43.351 31.113 4.063 61.121 5.556 90.256 6.46 28.404.882 61.773 4.982 88.772-5.252 8.984-3.41 18.311-9.838 27.932-12.25 4.787-1.205 9.639-1.42 14.564.225 4.586-39.783 1.207-82.254 1.576-122.411.043-3.876 1.42-10.503.143-14.11-1.578-4.441 4.844-9.94.713-12.752-3.678-2.498-7.645-3.724-11.277-6.265-2.758-1.931-9.525-1.138-14.892-4.253-14.342-8.327-22.122-21.553-30.997-35.479-9.396-14.038-18.85-28.161-25.662-43.604-6.814-15.458-10.931-32.463-9.098-49.254.822-7.523 2.824-15.046 1.915-22.555-.667-5.564-3.562-11.284-8.063-14.294-1.334-.894-2.697-1.505-4.06-1.888-14.934-4.159-31.284 19.986-37.118 30.574-9.567 17.389-13.258 38.197-8.915 57.672 1.731 7.779 4.599 15.288 6.019 23.137 1.419 7.85 1.249 16.367-2.74 23.265-2.967 5.138-7.422 7.822-12.519 9.169-8.005 2.144-17.8 4.84-25.736 4.001-11.334-1.197-21.994.108-33.982.045-7.964-.042-15.808-1.854-23.77-1.825-9.767.027-20.215-.731-28.221 4.848-7.437 5.194-11.497 14.819-10.021 23.774 1.479 8.939 8.419 16.761 17.12 19.289z" stroke="#236d9b" stroke-width="2.8346"/><path d="m328.412 386.874-72.296 1.007c-11.382 0-21.337-10.078-24.175-26.921 0-12.821 6.193-22.944 17.576-22.944l78.44-.244c11.382 0 25.488 13.275 25.488 26.098v-2.727c1.333 20.999-13.651 25.731-25.033 25.731z" stroke="#236d9b" stroke-width="2.7477"/><path d="m246.633 288.064h66.479c11.382 0 27.333 7.742 29.538 23.188-.081 12.822-5.902 26.199-17.205 26.199h-81.409" stroke="#236d9b" stroke-width="2.7477"/><path d="m368.445 410.063c0 6.364-3.977 14.225-7 18.407-4.48 3.465-8.401 4.78-12.902 4.78h-72.877c-15.222 0-29.479-11.775-29.479-27.404 0-6.366 3.255-12.239 7.25-16.215 4.552-1.962 3.659-1.181 7.388-1.815.643-.092 14.198-.941 14.841-.941h66.984c9.002-.001 25.795 4.263 25.795 23.188z" stroke="#236d9b" stroke-width="2.4524"/><path d="m319.55 288.064h-84.641c-12.771 0-23.099-10.367-23.099-23.188 0-12.822 14.025-25.463 26.797-25.463l80.942 2.275c12.771 0 23.099 10.366 23.099 23.188-.09 12.823-10.417 23.188-23.098 23.188z" stroke="#236d9b" stroke-width="2.9106"/><path d="m479.97 262.085h40.785v163.702h-40.785z" stroke="#640917" stroke-linecap="round" stroke-width="3"/></g><path d="m479.97 262.085h40.785v163.702h-40.785z" fill="none" stroke="#236d9b" stroke-linecap="round" stroke-width="3"/><path d="m511.027 254.041h195.6v197.656h-195.6z" fill="#6ebdff" stroke="#350a63" stroke-linecap="round" stroke-width="3"/><circle cx="546.386" cy="422.511" fill="none" r="9.635" stroke="#236d9b" stroke-linecap="round" stroke-width="3"/><path d="m706.064 451.697h-195.037v-197.656h195.6v197.002c-.001.374-.282.654-.563.654z" fill="none" stroke="#236d9b" stroke-linecap="round" stroke-width="3"/></g></svg>