<?xml version="1.0" encoding="iso-8859-1"?>
<!-- Generator: Adobe Illustrator 16.0.0, SVG Export Plug-In . SVG Version: 6.00 Build 0)  -->
<!DOCTYPE svg PUBLIC "-//W3C//DTD SVG 1.0//EN" "http://www.w3.org/TR/2001/REC-SVG-20010904/DTD/svg10.dtd">
<svg version="1.0" id="Livello_1" xmlns="http://www.w3.org/2000/svg" xmlns:xlink="http://www.w3.org/1999/xlink" x="0px" y="0px"
	 width="635.016px" height="219.474px" viewBox="0 0 635.016 219.474" enable-background="new 0 0 635.016 219.474"
	 xml:space="preserve">
<g>
	<path fill="#5B9ED5" d="M133.926,118.709c-0.562-0.909-1.372-1.771-1.887-2.312l-1.829-1.846c-2.447-2.392-4.941-4.65-7.411-6.918
		c-2.41-2.277-3.923-4.491-5.032-6.602c-0.498-1.007-0.522-1.778-0.262-3.355c0.269-1.467,0.668-3.463,0.736-5.248
		c0.2-3.588-0.051-7.133-0.694-10.64c-1.276-6.999-4.357-13.794-9.076-19.278c-1.135-1.37-2.511-2.692-3.678-3.804l-2.037-1.799
		l-2.101-1.633c-2.839-2.106-5.873-3.939-9.038-5.482c-6.333-3.076-13.191-2.501-20.206-3.125c0,0-40.064,3.485-57.947-21.86
		c0,0,13.437,34.482,53.944,40.413c-20.501,3.305-45.661-19.044-47.713-22.463c-4.245-5.564,7.167,32.054,44.479,38.216
		c-14.067,0.689-30.237-9.798-37.564-15.547c-6.265-4.909,7.03,32.343,40.609,33.879c-11.632,3.592-34.967-11.067-35.458-13.809
		c-1.273,3.674,6.998,25.375,36.948,33.84c-13.919,0.404-22.293-8.903-29.972-10.961c-2.19,4.112,20.666,29.456,33.483,27.401
		c-8.414,4.792-23.096-8.155-26.201-8.155c0,0,26.077,51.125,41.52,53.464c-3.039-0.532-0.066,0.239,2.971,0.894
		c3.048,0.639,6.16,1.002,9.282,1.127c1.563,0.071,3.129,0.048,4.691-0.012c1.567-0.064,3.131-0.192,4.689-0.393
		c1.554-0.218,3.114-0.447,4.649-0.815c1.554-0.31,3.044-0.755,4.593-1.239c1.574-0.549,3.093-1.423,4.321-2.697
		c1.225-1.275,2.038-2.949,2.374-4.656c0.354-1.716,0.279-3.444-0.013-5.088c-0.279-1.631-0.831-3.295-1.496-4.714
		c-0.58-1.276-0.759-2.513-0.56-3.715c0.105-0.594,0.33-1.146,0.615-1.596c0.173-0.243,0.256-0.338,0.5-0.551l0.903-0.779
		c0.654-0.581,1.354-1.41,1.768-2.388c0.408-0.996,0.547-1.967,0.511-2.982c-0.023-1.012-0.281-2.268-0.985-3.345
		c0.821-0.535,1.593-1.119,2.455-1.889c0.411-0.4,0.786-0.859,1.111-1.468c0.327-0.621,0.479-1.391,0.466-2.074
		c-0.067-1.363-0.507-2.288-0.867-3.128c-0.74-1.626-1.627-3.142-2.163-4.436c-0.116-0.314-0.205-0.608-0.229-0.781
		c-0.011-0.065-0.011-0.097-0.006-0.116c0,0,0,0.008-0.001,0.008c-0.041,0.036-0.854-1.773-0.198-2.18l2.08-1.365l1.131-0.769
		c0.353-0.277,0.636-0.442,1.06-0.814c1.542-1.296,2.895-1.564,3.619-3.758C135.557,123.189,135.11,120.564,133.926,118.709z"/>
	<path fill="#5B9ED5" d="M501.087,118.426c0.563-0.908,1.371-1.771,1.889-2.311l1.828-1.847c2.446-2.396,4.941-4.65,7.41-6.921
		c2.411-2.279,3.923-4.489,5.033-6.599c0.499-1.011,0.522-1.781,0.26-3.355c-0.267-1.47-0.663-3.462-0.732-5.246
		c-0.201-3.588,0.047-7.133,0.691-10.641c1.277-7.003,4.356-13.797,9.074-19.279c1.14-1.37,2.515-2.692,3.681-3.807l2.038-1.795
		l2.102-1.635c2.838-2.105,5.871-3.938,9.038-5.483c6.33-3.074,13.191-2.501,20.204-3.124c0,0,40.066,3.485,57.949-21.859
		c0,0-13.437,34.479-53.945,40.414c20.502,3.3,45.658-19.043,47.712-22.468c4.245-5.562-7.165,32.058-44.475,38.22
		c14.064,0.684,30.229-9.801,37.563-15.549c6.26-4.909-7.034,32.345-40.613,33.882c11.632,3.59,34.968-11.068,35.461-13.809
		c1.272,3.669-6.997,25.374-36.946,33.839c13.915,0.403,22.294-8.906,29.97-10.961c2.191,4.112-20.667,29.456-33.486,27.397
		c8.414,4.796,23.097-8.15,26.206-8.15c0,0-26.081,51.125-41.522,53.46c3.039-0.528,0.066,0.24-2.97,0.893
		c-3.05,0.644-6.164,1.002-9.28,1.131c-1.563,0.068-3.129,0.047-4.694-0.011c-1.566-0.064-3.133-0.198-4.689-0.397
		c-1.554-0.217-3.114-0.448-4.646-0.815c-1.557-0.31-3.045-0.756-4.596-1.235c-1.572-0.553-3.096-1.425-4.32-2.697
		c-1.224-1.276-2.037-2.949-2.377-4.659c-0.354-1.713-0.276-3.445,0.013-5.085c0.282-1.631,0.835-3.295,1.5-4.715
		c0.577-1.275,0.76-2.515,0.557-3.717c-0.103-0.59-0.329-1.143-0.615-1.592c-0.17-0.244-0.255-0.338-0.499-0.551l-0.903-0.785
		c-0.655-0.58-1.353-1.403-1.766-2.385c-0.411-0.998-0.547-1.97-0.514-2.983c0.022-1.007,0.282-2.269,0.988-3.345
		c-0.821-0.535-1.595-1.115-2.456-1.885c-0.415-0.405-0.786-0.861-1.112-1.472c-0.327-0.617-0.477-1.387-0.468-2.074
		c0.07-1.36,0.506-2.285,0.869-3.128c0.74-1.623,1.63-3.143,2.163-4.436c0.118-0.312,0.208-0.604,0.229-0.781
		c0.013-0.065,0.013-0.097,0.004-0.114c0,0,0,0.005,0.003,0.005c0.04,0.04,0.852-1.772,0.198-2.176l-2.083-1.368l-1.128-0.769
		c-0.353-0.277-0.635-0.442-1.059-0.814c-1.543-1.295-2.897-1.562-3.619-3.757C499.46,122.907,499.906,120.277,501.087,118.426z"/>
	<g>
		<path fill="#154A68" d="M153.514,180.842V85.139h17.876v95.703H153.514z"/>
		<path fill="#154A68" d="M233.34,152.678h-27.019v28.164h-18.013V85.139c15.011,0,30.021-0.137,45.031-0.137
			C280.009,85.002,280.146,152.678,233.34,152.678z M206.321,136.135h27.019c23.062,0,22.926-33.906,0-33.906h-27.019V136.135z"/>
		<path fill="#154A68" d="M325.58,152.678h-27.019v28.164h-18.013V85.139c15.011,0,30.021-0.137,45.031-0.137
			C372.249,85.002,372.386,152.678,325.58,152.678z M298.562,136.135h27.019c23.062,0,22.926-33.906,0-33.906h-27.019V136.135z"/>
		<path fill="#154A68" d="M372.927,180.842V85.139h17.876v95.703H372.927z"/>
		<path fill="#154A68" d="M469.399,108.245c-3.274-5.469-12.281-10.664-22.652-10.664c-13.373,0-19.786,5.605-19.786,12.715
			c0,8.34,9.825,10.664,21.287,12.031c19.924,2.461,38.481,7.656,38.481,30.488c0,21.328-18.831,30.488-40.118,30.488
			c-19.514,0-34.524-6.016-41.62-23.516l15.01-7.793c4.23,10.527,15.284,15.176,26.883,15.176c11.326,0,21.97-3.965,21.97-14.355
			c0-9.023-9.415-12.715-22.106-14.082c-19.514-2.324-37.526-7.52-37.526-28.984c0-19.688,19.378-27.754,36.98-27.891
			c14.874,0,30.294,4.238,37.526,19.004L469.399,108.245z"/>
	</g>
</g>
</svg>
