<?xml version="1.0" encoding="utf-8"?>
<!-- Generator: Adobe Illustrator 16.0.0, SVG Export Plug-In . SVG Version: 6.00 Build 0)  -->
<!DOCTYPE svg PUBLIC "-//W3C//DTD SVG 1.1//EN" "http://www.w3.org/Graphics/SVG/1.1/DTD/svg11.dtd">
<svg version="1.1" id="Livello_1" xmlns="http://www.w3.org/2000/svg" xmlns:xlink="http://www.w3.org/1999/xlink" x="0px" y="0px"
	 width="841.891px" height="595.281px" viewBox="978 0 841.891 595.281" enable-background="new 978 0 841.891 595.281"
	 xml:space="preserve">
<g>
	<path fill="#154A68" d="M1370.97,325.199c-1.518-2.463-3.721-4.811-5.131-6.283l-4.978-5.021
		c-6.659-6.507-13.446-12.657-20.159-18.824c-6.552-6.201-10.683-12.224-13.685-17.955c-1.365-2.752-1.438-4.84-0.729-9.13
		c0.736-3.998,1.82-9.425,2.012-14.274c0.555-9.767-0.137-19.41-1.893-28.949c-3.468-19.047-11.847-37.538-24.691-52.458
		c-3.086-3.726-6.824-7.32-10-10.341l-5.549-4.894l-5.713-4.445c-7.726-5.731-15.978-10.717-24.592-14.911
		c-17.23-8.375-35.894-6.81-54.97-8.507c0,0-109.004,9.479-157.657-59.473c0,0,36.555,93.813,146.766,109.943
		c-55.771,8.994-124.223-51.808-129.809-61.115c-11.554-15.13,19.495,87.218,121.012,103.984
		c-38.275,1.865-82.262-26.661-102.197-42.305c-17.049-13.352,19.125,87.99,110.486,92.175
		c-31.644,9.776-95.146-30.113-96.476-37.569c-3.457,9.993,19.031,69.03,100.515,92.067c-37.865,1.096-60.64-24.225-81.535-29.825
		c-5.951,11.19,56.225,80.132,91.098,74.548c-22.893,13.037-62.84-22.188-71.283-22.188c0,0,70.945,139.091,112.97,145.454
		c-8.279-1.441-0.191,0.652,8.069,2.437c8.289,1.735,16.748,2.725,25.246,3.063c4.259,0.191,8.517,0.127,12.773-0.031
		c4.268-0.178,8.525-0.526,12.746-1.067c4.24-0.593,8.479-1.226,12.666-2.222c4.221-0.838,8.27-2.051,12.49-3.364
		c4.285-1.498,8.406-3.875,11.754-7.343c3.33-3.473,5.551-8.016,6.461-12.674c0.973-4.664,0.754-9.362-0.037-13.834
		c-0.754-4.442-2.267-8.971-4.057-12.828c-1.595-3.475-2.066-6.842-1.531-10.104c0.283-1.613,0.902-3.119,1.676-4.34
		c0.463-0.664,0.691-0.929,1.355-1.504l2.455-2.115c1.782-1.584,3.686-3.836,4.813-6.498c1.108-2.719,1.481-5.351,1.394-8.119
		c-0.072-2.748-0.767-6.168-2.677-9.092c2.22-1.461,4.322-3.056,6.66-5.144c1.127-1.096,2.146-2.338,3.029-3.991
		c0.883-1.689,1.301-3.785,1.264-5.644c-0.172-3.707-1.373-6.223-2.354-8.506c-2.013-4.436-4.423-8.557-5.877-12.071
		c-0.318-0.858-0.564-1.655-0.629-2.129c-0.025-0.172-0.025-0.26-0.009-0.313c0,0,0,0.021-0.018,0.021
		c-0.103,0.096-2.313-4.826-0.529-5.936l5.649-3.709l3.084-2.093c0.955-0.752,1.72-1.2,2.896-2.221
		c4.193-3.521,7.867-4.258,9.834-10.217C1375.41,337.389,1374.191,330.246,1370.97,325.199z"/>
	<path fill="#154A68" d="M1397.738,325.199c1.52-2.463,3.721-4.811,5.131-6.283l4.977-5.018c6.658-6.52,13.455-12.656,20.16-18.838
		c6.562-6.199,10.662-12.213,13.693-17.944c1.355-2.756,1.41-4.853,0.709-9.134c-0.729-3.994-1.801-9.421-2-14.271
		c-0.537-9.767,0.125-19.406,1.881-28.949c3.467-19.052,11.846-37.538,24.685-52.454c3.11-3.729,6.85-7.324,10.024-10.358
		l5.541-4.88l5.715-4.445c7.73-5.727,15.976-10.717,24.593-14.925c17.229-8.361,35.889-6.801,54.969-8.493
		c0,0,109.01,9.479,157.656-59.473c0,0-36.556,93.804-146.759,109.948c55.771,8.983,124.216-51.803,129.791-61.124
		c11.563-15.13-19.479,87.222-120.991,103.984c38.272,1.86,82.252-26.662,102.186-42.301
		c17.041-13.355-19.112,87.994-110.475,92.175c31.643,9.763,95.127-30.113,96.475-37.565c3.457,9.977-19.043,69.029-100.522,92.057
		c37.856,1.102,60.656-24.224,81.527-29.819c5.967,11.19-56.218,80.132-91.107,74.533c22.908,13.054,62.857-22.173,71.309-22.173
		c0,0-70.955,139.098-112.967,145.446c8.269-1.435,0.189,0.664-8.07,2.438c-8.307,1.738-16.776,2.726-25.256,3.076
		c-4.25,0.187-8.508,0.121-12.772-0.037c-4.269-0.178-8.517-0.537-12.738-1.078c-4.258-0.592-8.488-1.223-12.664-2.215
		c-4.221-0.846-8.287-2.061-12.508-3.36c-4.271-1.507-8.416-3.875-11.736-7.343c-3.351-3.477-5.551-8.024-6.471-12.674
		c-0.963-4.66-0.765-9.375,0.026-13.834c0.773-4.442,2.275-8.971,4.076-12.828c1.584-3.475,2.084-6.846,1.521-10.114
		c-0.281-1.599-0.894-3.101-1.664-4.328c-0.474-0.664-0.711-0.922-1.375-1.5l-2.455-2.144c-1.775-1.565-3.677-3.813-4.795-6.481
		c-1.119-2.718-1.492-5.354-1.4-8.115c0.063-2.738,0.771-6.168,2.691-9.098c-2.229-1.455-4.341-3.039-6.679-5.134
		c-1.129-1.096-2.146-2.338-3.028-4.002c-0.894-1.68-1.291-3.774-1.283-5.641c0.199-3.703,1.383-6.223,2.375-8.51
		c2.012-4.418,4.422-8.556,5.887-12.065c0.318-0.854,0.564-1.645,0.629-2.133c0.025-0.178,0.025-0.264,0.009-0.309v0.014
		c0.116,0.109,2.319-4.818,0.534-5.918l-5.657-3.717l-3.074-2.088c-0.947-0.761-1.719-1.216-2.865-2.226
		c-4.213-3.521-7.898-4.244-9.854-10.217C1393.296,337.389,1394.527,330.238,1397.738,325.199z"/>
</g>
<path fill="#6EBDFF" stroke="#236D9B" stroke-width="0.6783" stroke-miterlimit="10" d="M1408.965,508.636
	c0,0-0.04-0.345,0.319-4.043c0.43-2.716,2.486-7.103,4.628-8.854c2.14-1.752,12.389-2.599,15.792-0.159
	c2.982,2.138,6.401,13.011,4.457,13.985c-1.95,0.974-25.195,0.433-25.195,0.433L1408.965,508.636L1408.965,508.636z"/>
<path fill="#6EBDFF" stroke="#236D9B" stroke-width="0.6783" stroke-miterlimit="10" d="M1455.81,508.636c0,0,0-1.261,1.261-4.745
	c1.791-2.46,1.875-3.368,3.687-8.151c2.14-1.752,12.389-2.599,15.792-0.159c2.982,2.138,6.401,13.011,4.457,13.985
	c-1.95,0.974-25.195,0.433-25.195,0.433L1455.81,508.636L1455.81,508.636z"/>
<path fill="#C5EDF9" stroke="#236D9B" stroke-width="0.8872" stroke-linecap="round" stroke-linejoin="round" stroke-miterlimit="10" d="
	M1514.445,510.891c0,0,2.667-3.516,9.25-5.509c2.677-1.337,4.667-2.667,7.447-10.24c0.053-3.27,16.308-1.07,16.308-1.07
	s2.67,20.581,0,21.918c-2.678,1.338-23.005,5.67-32.005,5.401c-4.083-0.122-2.417-7.5-2.417-7.5L1514.445,510.891z"/>
<path fill="#C5EDF9" stroke="#236D9B" stroke-width="0.8872" stroke-linecap="round" stroke-linejoin="round" stroke-miterlimit="10" d="
	M1470.445,510.891c0,0,2.667-3.516,9.25-5.509c2.677-1.337,4.667-2.667,7.447-10.24c0.053-3.27,16.308-1.07,16.308-1.07
	s2.67,20.581,0,21.918c-2.678,1.338-23.005,5.67-32.005,5.401c-4.083-0.122-2.417-7.5-2.417-7.5L1470.445,510.891z"/>
<path fill="#C5EDF9" stroke="#236D9B" stroke-width="1.0791" stroke-linecap="round" stroke-linejoin="round" stroke-miterlimit="10" d="
	M1281.215,516.611c-0.402,1.524-1.519,3.271-2.832,3.667c-0.961,0.289-3.965,0-3.965,0l-26.776-2.121c0,0-1.36-0.535-2.042-3.209
	c-0.908-2.671,0.682-17.639,0.682-17.639h14.006c0,0,1.012,6.067,4.644,7.135c3.635,1.069,7.55,2.209,9.912,3.167
	c1.949,0.791,4.45,3.204,5.664,5.167C1281.067,513.686,1281.496,515.539,1281.215,516.611z"/>
<path fill="#C5EDF9" stroke="#236D9B" stroke-width="1.0791" stroke-linecap="round" stroke-linejoin="round" stroke-miterlimit="10" d="
	M1322.215,516.611c-0.402,1.524-1.519,3.271-2.832,3.667c-0.961,0.289-3.965,0-3.965,0l-26.776-2.121c0,0-1.36-0.535-2.042-3.209
	c-0.908-2.671,0.682-17.639,0.682-17.639h14.006c0,0,1.012,6.067,4.644,7.135c3.635,1.069,7.55,2.209,9.912,3.167
	c1.949,0.791,4.45,3.204,5.664,5.167C1322.067,513.686,1322.496,515.539,1322.215,516.611z"/>
<g>
	<g>
		<g>
			<defs>
				<rect id="SVGID_65_" x="1121.967" y="92.191" width="524.772" height="406.875"/>
			</defs>
			<clipPath id="SVGID_2_">
				<use xlink:href="#SVGID_65_"  overflow="visible"/>
			</clipPath>
			<g clip-path="url(#SVGID_2_)">
				
					<line fill="none" stroke="#236D9B" stroke-linecap="round" stroke-miterlimit="10" x1="1224.884" y1="246.172" x2="1223.827" y2="339.697"/>
				<path fill="#6EBDFF" stroke="#236D9B" stroke-miterlimit="10" d="M1166.679,242.203v-46.697c0,0,6.086-25.531,28.31-23.943
					c0,0,20.77,0.266,25.398,21.828l0.926,49.342L1166.679,242.203z"/>
				<path fill="#FFFFFF" stroke="#236D9B" stroke-linecap="round" stroke-miterlimit="10" d="M1234.145,364.435
					c0,0,2.382,13.228-10.054,12.169c-12.303-1.06-7.541-12.169-7.541-12.169H1234.145z"/>
				<polygon fill="#FFFFFF" stroke="#236D9B" stroke-linecap="round" stroke-miterlimit="10" points="1185.464,237.043 
					1186.523,219.714 1202.396,222.095 1201.735,238.367 				"/>
				<path fill="none" stroke="#236D9B" stroke-linecap="round" stroke-miterlimit="10" d="M1209.938,182.277"/>
				
					<line fill="none" stroke="#236D9B" stroke-linecap="round" stroke-miterlimit="10" x1="1178.056" y1="212.173" x2="1180.041" y2="212.173"/>
				<polygon fill="#6EBDFF" stroke="#236D9B" stroke-miterlimit="10" points="1165.886,426.077 1162.976,334.142 1224.355,336.125 
					1223.827,426.077 1171.97,426.077 				"/>
				
					<line fill="none" stroke="#236D9B" stroke-linecap="round" stroke-miterlimit="10" x1="1177.395" y1="199.74" x2="1174.881" y2="199.74"/>
				<path fill="none" stroke="#236D9B" stroke-linecap="round" stroke-miterlimit="10" d="M1211.524,194.713
					c0,0,1.059,0.529,2.911,0"/>
				<path fill="none" stroke="#236D9B" stroke-linecap="round" stroke-miterlimit="10" d="M1198.164,186.775
					c0,0-1.455-5.027-2.117-6.35"/>
				<path fill="#C5EDF9" stroke="#236D9B" stroke-linecap="round" stroke-miterlimit="10" d="M1152.921,364.435l5.558-120.114
					c0,0-0.396-7.674,9.393-10.055c9.789-2.381,53.84,0,53.84,0s8.73,1.322,9.26,10.979c0.529,9.656,6.084,119.056,6.084,119.056
					h-12.565l-0.529-24.869l-48.416-0.133l-1.322,25.002v1.323L1152.921,364.435z"/>
				
					<line fill="none" stroke="#236D9B" stroke-linecap="round" stroke-miterlimit="10" x1="1180.041" y1="246.172" x2="1175.542" y2="339.433"/>
				<path fill="#FFFFFF" stroke="#236D9B" stroke-linecap="round" stroke-miterlimit="10" d="M1155.039,364.567
					c0,0-1.455,11.772,6.614,11.772c0,0,11.243,1.983,10.316-10.583L1155.039,364.567z"/>
				
					<line fill="none" stroke="#236D9B" stroke-linecap="round" stroke-miterlimit="10" x1="1223.827" y1="339.697" x2="1221.313" y2="248.686"/>
				<path fill="#FFFFFF" stroke="#236D9B" stroke-linecap="round" stroke-miterlimit="10" d="M1177.395,204.502
					c0,0-2.777,0-2.514,3.439c0.265,3.439,3.042,4.1,3.042,4.1c0.396,13.758,15.875,15.479,15.875,15.479
					c13.759,0.926,17.727-15.213,17.727-15.213v-17.594c0,0-12.436-3.836-13.493-8.07c0,0-8.599,14.023-20.637,13.098V204.502h2.514
					"/>
				
					<line fill="none" stroke="#236D9B" stroke-linecap="round" stroke-miterlimit="10" x1="1190.226" y1="201.459" x2="1193.93" y2="201.459"/>
				
					<line fill="none" stroke="#236D9B" stroke-linecap="round" stroke-miterlimit="10" x1="1203.587" y1="201.459" x2="1206.629" y2="201.459"/>
				<path fill="none" stroke="#236D9B" stroke-linecap="round" stroke-miterlimit="10" d="M1192.475,218.127
					c0,0,3.176,2.381,7.54,0.266"/>
				<path fill="none" stroke="#236D9B" stroke-linecap="round" stroke-miterlimit="10" d="M1199.089,201.988l2.646,7.938
					c0,0,1.058,2.645-0.528,3.307c-1.721,0.662-3.043,0-3.043,0"/>
			</g>
		</g>
	</g>
	<g>
		<g>
			<defs>
				<rect id="SVGID_67_" x="1121.967" y="92.191" width="524.772" height="406.875"/>
			</defs>
			<clipPath id="SVGID_4_">
				<use xlink:href="#SVGID_67_"  overflow="visible"/>
			</clipPath>
			<g clip-path="url(#SVGID_4_)">
				<polygon fill="#FFFFFF" stroke="#236D9B" stroke-linecap="round" stroke-miterlimit="10" points="1439.98,225.535 
					1439.98,247.627 1457.044,247.627 1456.119,226.593 				"/>
				<path fill="#6EBDFF" stroke="#236D9B" stroke-miterlimit="10" d="M1431.513,224.477c0,0-8.467-11.244-7.938-23.018
					c0.528-11.774,6.35-17.461,6.35-17.461s9.129-9.393,21.563-7.012c12.568,2.514,15.479,13.361,15.479,13.361
					s1.189,10.053-1.983,14.287C1461.673,209,1445.8,230.429,1431.513,224.477z"/>
				<polygon fill="#C5EDF9" stroke="#236D9B" stroke-linecap="round" stroke-miterlimit="10" points="1478.341,339.697 
					1478.341,495.198 1459.029,495.198 1450.563,367.873 1444.212,367.873 1435.35,497.051 1410.083,495.198 1410.083,339.433 				
					"/>
				
					<line fill="none" stroke="#236D9B" stroke-linecap="round" stroke-miterlimit="10" x1="1457.044" y1="367.74" x2="1437.07" y2="367.74"/>
				<path fill="#FFFFFF" stroke="#236D9B" stroke-linecap="round" stroke-miterlimit="10" d="M1431.38,215.084
					c0,0-1.455,18.785,18.123,16.934c19.578-1.854,17.463-19.314,17.463-19.314l-0.396-17.461c0,0,1.057-9.393-20.107-7.674
					c0,0-13.627,5.424-15.082,17.727l-0.264,1.721c0,0-2.91,1.719-2.514,4.895C1429,215.084,1431.38,215.084,1431.38,215.084z"/>
				<path fill="none" stroke="#236D9B" stroke-linecap="round" stroke-miterlimit="10" d="M1453.341,204.766
					c0,0.133,3.57,10.979,3.57,10.979s-0.396,1.852-1.188,2.117c-0.795,0.396-3.97-0.662-3.97-0.662"/>
				<path fill="none" stroke="#236D9B" stroke-linecap="round" stroke-miterlimit="10" d="M1447.652,223.154
					c0,0,4.365,1.322,7.145,0"/>
				<circle fill="#236D9B" cx="1445.934" cy="204.765" r="0.926"/>
				<circle fill="#236D9B" cx="1460.218" cy="204.766" r="0.794"/>
				
					<line fill="none" stroke="#236D9B" stroke-linecap="round" stroke-miterlimit="10" x1="1430.984" y1="207.016" x2="1434.689" y2="207.016"/>
				
					<line fill="none" stroke="#236D9B" stroke-linecap="round" stroke-miterlimit="10" x1="1431.38" y1="215.084" x2="1433.234" y2="215.084"/>
				<path fill="#FFFFFF" stroke="#236D9B" stroke-linecap="round" stroke-miterlimit="10" d="M1413.919,239.822h55.69
					c0,0,12.966,2.91,16.535,4.629c3.572,1.588,5.424,105.565,5.424,105.565h-94.848L1413.919,239.822z"/>
			</g>
		</g>
	</g>
	<g>
		<g>
			<defs>
				<rect id="SVGID_69_" x="1121.967" y="92.191" width="524.772" height="406.875"/>
			</defs>
			<clipPath id="SVGID_6_">
				<use xlink:href="#SVGID_69_"  overflow="visible"/>
			</clipPath>
			<g clip-path="url(#SVGID_6_)">
				<path fill="#6EBDFF" stroke="#236D9B" stroke-miterlimit="10" d="M1266.025,218.393c0,0-6.084,1.322-8.599-3.439
					c-2.646-4.764-4.102-17.727-4.102-17.727s0.396-12.436,9.393-18.652c8.995-6.217,14.685-4.365,14.685-4.365
					s15.608,0.264,18.255,0.133c2.646-0.133-1.323,10.316-1.323,10.316s3.176,5.557,2.25,8.467
					C1295.658,196.168,1266.025,218.393,1266.025,218.393z"/>
				<polygon fill="#FFFFFF" stroke="#236D9B" stroke-linecap="round" stroke-miterlimit="10" points="1269.597,220.904 
					1269.068,237.309 1285.736,237.309 1285.736,221.699 				"/>
				<path fill="#FFFFFF" stroke="#236D9B" stroke-linecap="round" stroke-miterlimit="10" d="M1315.764,364.17
					c0,0,1.984,12.963-7.673,12.565c-9.656-0.396-10.979-11.243-10.979-11.243L1315.764,364.17z"/>
				<polygon fill="#6EBDFF" stroke="#236D9B" stroke-miterlimit="10" points="1245.917,328.453 1244.462,496.887 1263.645,496.887 
					1271.449,356.101 1276.873,356.894 1284.941,496.887 1303.991,496.887 1303.991,328.453 				"/>
				<path fill="#FFFFFF" stroke="#236D9B" stroke-linecap="round" stroke-miterlimit="10" d="M1239.304,364.17l5.158-119.719
					c0,0,2.117-11.111,12.832-10.053l47.226-0.133c0,0,9.129,3.836,7.938,12.436c-1.059,8.73,5.557,117.336,5.557,117.336h-13.096
					l-0.926-25.397h-42.067l-1.058,26.721L1239.304,364.17z"/>
				<polyline fill="#FFFFFF" stroke="#236D9B" stroke-linecap="round" stroke-miterlimit="10" points="1266.554,245.906 
					1261.924,338.771 1260.734,365.359 				"/>
				
					<line fill="none" stroke="#236D9B" stroke-linecap="round" stroke-miterlimit="10" x1="1302.8" y1="248.156" x2="1303.991" y2="338.771"/>
				<path fill="none" stroke="#236D9B" stroke-linecap="round" stroke-miterlimit="10" d="M1276.873,356.894c0,0,6.217,0.928,7.54,0
					"/>
				<path fill="#FFFFFF" stroke="#236D9B" stroke-linecap="round" stroke-miterlimit="10" d="M1241.818,364.302
					c0,0-2.25,11.771,6.746,12.435c0,0,11.111,0.529,9.921-11.376L1241.818,364.302z"/>
				<polygon fill="#A5D1F6" stroke="#236D9B" stroke-linecap="round" stroke-miterlimit="10" points="1275.814,240.88 
					1281.502,236.382 1286.396,241.542 1281.9,246.964 				"/>
				<polygon fill="#A5D1F6" stroke="#236D9B" stroke-linecap="round" stroke-miterlimit="10" points="1281.9,246.964 
					1276.873,251.331 1279.386,291.281 1281.9,293 1284.016,290.752 1286.396,251.595 				"/>
				<path fill="#FFFFFF" stroke="#236D9B" stroke-linecap="round" stroke-miterlimit="10" d="M1261.924,215.879
					c0,0,3.042,10.318,16.271,11.773c0,0,11.51,0.396,16.404-11.773c0,0,1.852-19.578,0.926-22.887c0,0-2.514-5.158-3.176-5.555
					c-0.793-0.396-3.438,3.836-9.92,3.57c-6.482-0.264-12.699,0-14.023,0.529c-1.322,0.529-5.952,2.514-6.35,6.086
					c-0.396,3.572,0,6.35,0,6.35s-2.777,0.529-2.91,3.969c0,3.439,1.721,4.232,1.721,4.232l0.926,0.266L1261.924,215.879z"/>
				
					<line fill="none" stroke="#236D9B" stroke-linecap="round" stroke-miterlimit="10" x1="1261.924" y1="203.839" x2="1264.306" y2="203.839"/>
				
					<line fill="none" stroke="#236D9B" stroke-linecap="round" stroke-miterlimit="10" x1="1261.792" y1="212.307" x2="1263.777" y2="212.57"/>
				<path fill="none" stroke="#236D9B" stroke-linecap="round" stroke-miterlimit="10" d="M1282.429,201.195l3.308,9.789
					c0,0,0,2.645-1.721,2.514c-1.72-0.133-1.983-0.266-1.983-0.266"/>
				<path fill="none" stroke="#236D9B" stroke-linecap="round" stroke-miterlimit="10" d="M1276.477,217.994
					c0,0,2.514,2.25,7.407,0.926"/>
				<circle fill="#236D9B" cx="1276.477" cy="201.195" r="1.323"/>
				<circle fill="#236D9B" cx="1288.25" cy="201.195" r="1.323"/>
				<path fill="#C5EDF9" stroke="#236D9B" stroke-linecap="round" stroke-miterlimit="10" d="M1274.755,429.253h-51.59
					c-3.309,0-5.953-2.646-5.953-5.952v-36.513c0-3.307,2.646-5.95,5.953-5.95h10.979h40.744c3.307,0,5.953,2.645,5.953,5.95v36.513
					C1280.577,426.607,1277.931,429.253,1274.755,429.253z"/>
				<path fill="none" stroke="#236D9B" stroke-miterlimit="10" d="M1234.013,380.969v-5.82c0,0,0.132-2.646,3.57-2.646
					s25.135,0.396,25.135,0.396s2.777,0.529,2.646,2.645v5.558"/>
				<polygon fill="#6EBDFF" stroke="#236D9B" stroke-miterlimit="10" points="1217.212,389.567 1280.577,390.098 1280.577,418.669 
					1217.212,417.215 				"/>
				<path fill="#A2DFFE" stroke="#236D9B" stroke-miterlimit="10" d="M1217.212,392.479l5.688,11.641c0,0,0.927,2.777,4.233,2.777
					c3.308,0,45.902,0.396,45.902,0.396s1.719,0.134,2.514-2.114c0.793-2.25,5.026-12.568,5.026-12.568v-5.688
					c0,0,0-5.425-5.688-5.953c-5.688-0.529-53.311,0.133-53.311,0.133s-3.97,0.662-4.498,5.688v5.689H1217.212z"/>
				<path fill="#C5EDF9" stroke="#236D9B" stroke-linecap="round" stroke-miterlimit="10" d="M1253.988,413.512h-9.525
					c-1.719,0-3.174-1.455-3.174-3.177v-5.157c0-1.722,1.455-3.177,3.174-3.177h9.525c1.719,0,3.174,1.455,3.174,3.177v5.157
					C1257.294,412.057,1255.839,413.512,1253.988,413.512z"/>
				<path fill="#236D9B" d="M1250.548,409.146h-2.381c-0.662,0-1.323-0.529-1.323-1.324v-0.529c0-0.659,0.528-1.321,1.323-1.321
					h2.381c0.661,0,1.322,0.528,1.322,1.321v0.529C1251.871,408.616,1251.341,409.146,1250.548,409.146z"/>
			</g>
		</g>
	</g>
	<g>
		<g>
			<defs>
				<rect id="SVGID_71_" x="1121.967" y="92.191" width="524.772" height="406.875"/>
			</defs>
			<clipPath id="SVGID_8_">
				<use xlink:href="#SVGID_71_"  overflow="visible"/>
			</clipPath>
			<g clip-path="url(#SVGID_8_)">
				<path fill="#6EBDFF" stroke="#236D9B" stroke-miterlimit="10" d="M1497.259,192.595c0,0-0.795-9.127,1.06-11.111
					c1.852-1.984-0.662-2.381-0.662-2.381s-2.381-8.467,6.217-9.922c8.6-1.455,14.42,0.396,16.668,0
					c2.25-0.396,15.609,2.777,19.975,14.947c4.365,12.172,0.927,18.389,0.927,18.389s-3.041,10.451-2.91,11.773
					c0.133,1.322-4.762,5.688-10.979,5.291C1521.335,219.052,1497.259,192.595,1497.259,192.595z"/>
				<path fill="#FFFFFF" stroke="#236D9B" stroke-linecap="round" stroke-miterlimit="10" d="M1474.771,364.17
					c0,0-2.382,11.243,7.539,12.698c9.922,1.455,10.979-7.407,10.979-7.407v-4.631L1474.771,364.17z"/>
				<polygon fill="#6EBDFF" stroke="#236D9B" stroke-miterlimit="10" points="1486.015,338.771 1485.22,493.605 1506.783,493.605 
					1514.457,364.83 1520.938,364.83 1529.007,493.605 1549.775,493.605 1549.775,341.549 				"/>
				<line fill="none" stroke="#236D9B" stroke-miterlimit="10" x1="1506.783" y1="364.83" x2="1514.457" y2="364.83"/>
				<path fill="#FFFFFF" stroke="#236D9B" stroke-linecap="round" stroke-miterlimit="10" d="M1539.589,364.17
					c0,0-1.852,10.448,6.746,12.565c8.601,2.117,11.377-5.687,11.377-5.687l0.134-6.88L1539.589,364.17L1539.589,364.17z"/>
				<polygon fill="#FFFFFF" stroke="#236D9B" stroke-linecap="round" stroke-miterlimit="10" points="1507.975,238.63 
					1508.371,221.434 1525.701,221.434 1525.701,238.63 				"/>
				<path fill="#FFFFFF" stroke="#236D9B" stroke-linecap="round" stroke-miterlimit="10" d="M1515.912,226.725
					c0,0,12.301-0.527,17.195-11.244c0,0,1.059-3.57,1.059-5.688c0,0,2.646-1.588,1.984-4.102c0,0,0.266-3.57-3.174-4.232
					l0.131-7.938c0,0-1.853-7.01-9.127-7.01c-7.144,0-15.873-0.266-17.728-1.324c-1.983-1.057-5.424-2.115-5.688-3.041
					c0,0-3.308,7.143-3.308,9.92c0,2.779,0,19.447,0,19.447S1499.904,226.461,1515.912,226.725z"/>
				<line fill="none" stroke="#236D9B" stroke-miterlimit="10" x1="1530.595" y1="201.725" x2="1533.107" y2="201.591"/>
				<line fill="none" stroke="#236D9B" stroke-miterlimit="10" x1="1531.125" y1="210.189" x2="1534.166" y2="209.925"/>
				<path fill="none" stroke="#236D9B" stroke-miterlimit="10" d="M1514.72,196.564h11.244v5.16c0,0-1.322,2.248-3.043,2.248
					c-1.719,0-5.158,0-5.158,0s-1.983-0.793-2.646-2.514C1514.72,199.475,1514.72,196.564,1514.72,196.564z"/>
				<path fill="none" stroke="#236D9B" stroke-miterlimit="10" d="M1497.259,196.564h9.789l0.265,3.705c0,0-1.06,3.307-2.646,3.307
					c-1.455,0-5.953,0-5.953,0s-1.852-1.588-1.721-2.25C1497.259,200.4,1497.259,196.564,1497.259,196.564z"/>
				<line fill="none" stroke="#236D9B" stroke-miterlimit="10" x1="1514.72" y1="198.682" x2="1507.313" y2="198.682"/>
				<line fill="none" stroke="#236D9B" stroke-miterlimit="10" x1="1526.097" y1="198.682" x2="1532.843" y2="201.591"/>
				<path fill="none" stroke="#236D9B" stroke-miterlimit="10" d="M1511.018,200.136l-2.382,7.539c0,0-0.795,1.059-0.266,2.514
					c0.396,1.455,3.438,1.588,3.438,1.588"/>
				<path fill="none" stroke="#236D9B" stroke-miterlimit="10" d="M1509.693,217.068c0,0,2.779,2.117,7.805-0.264"/>
				<g>
					<path fill="#C5EDF9" stroke="#236D9B" stroke-linecap="round" stroke-miterlimit="10" d="M1486.015,347.502v17.461
						l-14.684-0.926l5.952-119.454c0,0,0.927-8.996,9.92-10.053c8.996-1.059,58.604,0,58.604,0s8.332,5.82,9.92,12.699
						c1.455,6.746,4.631,117.071,4.631,117.071h-23.282l-1.455-16.933L1486.015,347.502z"/>
					<line fill="none" stroke="#236D9B" stroke-miterlimit="10" x1="1530.595" y1="254.374" x2="1535.753" y2="347.236"/>
					<polyline fill="none" stroke="#236D9B" stroke-miterlimit="10" points="1484.294,252.388 1484.294,347.236 1486.015,347.502 
											"/>
				</g>
			</g>
		</g>
	</g>
	<g>
		<g>
			<defs>
				<rect id="SVGID_73_" x="1121.967" y="92.191" width="524.772" height="406.875"/>
			</defs>
			<clipPath id="SVGID_10_">
				<use xlink:href="#SVGID_73_"  overflow="visible"/>
			</clipPath>
			<g clip-path="url(#SVGID_10_)">
				
					<line fill="none" stroke="#236D9B" stroke-linecap="round" stroke-miterlimit="10" x1="1557.316" y1="246.172" x2="1558.375" y2="339.697"/>
				<path fill="#6EBDFF" stroke="#236D9B" stroke-miterlimit="10" d="M1615.521,242.203v-46.697c0,0-6.084-25.531-28.31-23.943
					c0,0-20.771,0.266-25.397,21.828l-0.927,49.342L1615.521,242.203z"/>
				<path fill="#FFFFFF" stroke="#236D9B" stroke-linecap="round" stroke-miterlimit="10" d="M1548.056,364.435
					c0,0-2.381,13.228,10.054,12.169c12.303-1.06,7.541-12.169,7.541-12.169H1548.056z"/>
				<polygon fill="#FFFFFF" stroke="#236D9B" stroke-linecap="round" stroke-miterlimit="10" points="1596.736,237.043 
					1595.679,219.714 1579.938,222.095 1580.466,238.367 				"/>
				<path fill="none" stroke="#236D9B" stroke-linecap="round" stroke-miterlimit="10" d="M1572.263,182.277"/>
				
					<line fill="none" stroke="#236D9B" stroke-linecap="round" stroke-miterlimit="10" x1="1604.145" y1="212.173" x2="1602.16" y2="212.173"/>
				<polygon fill="#C5EDF9" stroke="#236D9B" stroke-linecap="round" stroke-miterlimit="10" points="1616.314,426.077 
					1619.227,334.142 1557.845,336.125 1558.375,426.077 1610.23,426.077 				"/>
				
					<line fill="none" stroke="#236D9B" stroke-linecap="round" stroke-miterlimit="10" x1="1604.806" y1="199.74" x2="1607.32" y2="199.74"/>
				<path fill="none" stroke="#236D9B" stroke-linecap="round" stroke-miterlimit="10" d="M1570.677,194.713
					c0,0-1.059,0.529-2.909,0"/>
				<path fill="none" stroke="#236D9B" stroke-linecap="round" stroke-miterlimit="10" d="M1584.037,186.775
					c0,0,1.455-5.027,2.117-6.35"/>
				<path fill="#6EBDFF" stroke="#236D9B" stroke-miterlimit="10" d="M1629.279,364.435l-5.557-120.114
					c0,0,0.397-7.674-9.392-10.055c-9.789-2.381-53.84,0-53.84,0s-8.732,1.322-9.263,10.979
					c-0.526,9.656-6.084,119.056-6.084,119.056h12.566l0.529-24.869l48.416-0.133l1.322,25.002v1.323L1629.279,364.435z"/>
				
					<line fill="none" stroke="#236D9B" stroke-linecap="round" stroke-miterlimit="10" x1="1602.292" y1="246.172" x2="1606.658" y2="339.433"/>
				<path fill="#FFFFFF" stroke="#236D9B" stroke-linecap="round" stroke-miterlimit="10" d="M1627.162,364.567
					c0,0,1.455,11.772-6.613,11.772c0,0-11.244,1.983-10.318-10.583L1627.162,364.567z"/>
				
					<line fill="none" stroke="#236D9B" stroke-linecap="round" stroke-miterlimit="10" x1="1558.375" y1="339.697" x2="1560.888" y2="248.686"/>
				<path fill="#FFFFFF" stroke="#236D9B" stroke-linecap="round" stroke-miterlimit="10" d="M1604.806,204.502
					c0,0,2.777,0,2.515,3.439c-0.267,3.439-3.043,4.1-3.043,4.1c-0.396,13.758-15.873,15.479-15.873,15.479
					c-13.759,0.926-17.728-15.213-17.728-15.213v-17.594c0,0,12.435-3.836,13.492-8.07c0,0,8.6,14.023,20.637,13.098V204.502h-2.514
					"/>
				
					<line fill="none" stroke="#236D9B" stroke-linecap="round" stroke-miterlimit="10" x1="1591.975" y1="201.459" x2="1588.271" y2="201.459"/>
				
					<line fill="none" stroke="#236D9B" stroke-linecap="round" stroke-miterlimit="10" x1="1578.615" y1="201.459" x2="1575.572" y2="201.459"/>
				<path fill="none" stroke="#236D9B" stroke-linecap="round" stroke-miterlimit="10" d="M1589.727,218.127
					c0,0-3.177,2.381-7.541,0.266"/>
				<path fill="none" stroke="#236D9B" stroke-linecap="round" stroke-miterlimit="10" d="M1583.111,201.988l-2.646,7.938
					c0,0-1.059,2.645,0.529,3.307c1.586,0.662,3.041,0,3.041,0"/>
			</g>
		</g>
	</g>
	<g>
		<g>
			<defs>
				<rect id="SVGID_75_" x="1121.967" y="92.191" width="524.772" height="406.875"/>
			</defs>
			<clipPath id="SVGID_12_">
				<use xlink:href="#SVGID_75_"  overflow="visible"/>
			</clipPath>
			
				<path clip-path="url(#SVGID_12_)" fill="#FFFFFF" stroke="#236D9B" stroke-width="1.6" stroke-linecap="round" stroke-miterlimit="10" d="
				M1363.386,214.953c0,0,8.73-5.557,8.73-19.977h22.356c0,0,1.06,19.977,7.408,21.166
				C1408.232,217.201,1363.386,214.953,1363.386,214.953z"/>
		</g>
	</g>
	<g>
		<g>
			<defs>
				<rect id="SVGID_77_" x="1121.967" y="92.191" width="524.772" height="406.875"/>
			</defs>
			<clipPath id="SVGID_14_">
				<use xlink:href="#SVGID_77_"  overflow="visible"/>
			</clipPath>
			<path clip-path="url(#SVGID_14_)" fill="#6EBDFF" stroke="#236D9B" stroke-width="1.6" stroke-miterlimit="10" d="
				M1352.804,159.658V129.1c0,0,1.853-9.525,12.304-12.037l0.264-5.953c0,0,16.139,3.174,20.902,2.645c0,0,16.534,1.324,20.635,5.16
				c4.102,3.836,7.408,5.82,7.145,14.551c-0.133,8.73-0.396,26.721-0.396,26.721L1352.804,159.658z"/>
		</g>
	</g>
	<g>
		<g>
			<defs>
				<rect id="SVGID_79_" x="1121.967" y="92.191" width="524.772" height="406.875"/>
			</defs>
			<clipPath id="SVGID_16_">
				<use xlink:href="#SVGID_79_"  overflow="visible"/>
			</clipPath>
			
				<path clip-path="url(#SVGID_16_)" fill="#C5EDF9" stroke="#236D9B" stroke-width="1.6" stroke-linecap="round" stroke-miterlimit="10" d="
				M1337.855,259.531v93.659v15.213h91.409V262.441l23.019,32.676l-25.002,58.603l25.002,7.938l28.969-61.778
				c0,0,2.514-9.524-2.645-15.477c-5.16-5.953-42.463-59.529-42.463-59.529s-11.377-13.096-28.972-13.229
				c-17.461-0.131-54.104,0.529-54.104,0.529s-10.979,0-23.281,11.773s-42.332,59.264-42.332,59.264s-7.539,8.863-2.91,19.579
				c4.631,10.715,29.5,58.998,29.5,58.998l25.135-8.465l-26.854-57.942L1337.855,259.531z"/>
		</g>
	</g>
	<g>
		<g>
			<defs>
				<rect id="SVGID_81_" x="1121.967" y="92.191" width="524.772" height="406.875"/>
			</defs>
			<clipPath id="SVGID_18_">
				<use xlink:href="#SVGID_81_"  overflow="visible"/>
			</clipPath>
			
				<line clip-path="url(#SVGID_18_)" fill="none" stroke="#236D9B" stroke-width="1.6" stroke-miterlimit="10" x1="1342.354" y1="253.447" x2="1337.855" y2="259.531"/>
		</g>
	</g>
	<g>
		<g>
			<defs>
				<rect id="SVGID_83_" x="1121.967" y="92.191" width="524.772" height="406.875"/>
			</defs>
			<clipPath id="SVGID_20_">
				<use xlink:href="#SVGID_83_"  overflow="visible"/>
			</clipPath>
			
				<line clip-path="url(#SVGID_20_)" fill="none" stroke="#236D9B" stroke-width="1.6" stroke-miterlimit="10" x1="1423.046" y1="253.977" x2="1429.265" y2="262.441"/>
		</g>
	</g>
	<g>
		<rect x="1121.967" y="92.191" fill="none" width="524.772" height="406.875"/>
		<path fill="#FFFFFF" stroke="#236D9B" stroke-width="1.6" stroke-linecap="round" stroke-miterlimit="10" d="M1334.548,354.777
			c0,0,8.202,23.942,8.202,26.19c0,0,0.396,3.704-2.116,4.364c-2.514,0.662-2.514,0-2.514,0l7.938,10.188l-1.984,6.084
			c0,0-18.652-15.346-20.505-22.092v-11.376l-4.365-8.201L1334.548,354.777z"/>
	</g>
	<g>
		<g>
			<defs>
				<rect id="SVGID_85_" x="1121.967" y="92.191" width="524.772" height="406.875"/>
			</defs>
			<clipPath id="SVGID_22_">
				<use xlink:href="#SVGID_85_"  overflow="visible"/>
			</clipPath>
			<path clip-path="url(#SVGID_22_)" fill="none" stroke="#236D9B" stroke-width="1.6" stroke-miterlimit="10" d="M1332.035,369.065
				l3.837,14.153c0,0,0.794,2.514,3.438,2.248"/>
		</g>
	</g>
	<g>
		<g>
			<defs>
				<rect id="SVGID_87_" x="1121.967" y="92.191" width="524.772" height="406.875"/>
			</defs>
			<clipPath id="SVGID_24_">
				<use xlink:href="#SVGID_87_"  overflow="visible"/>
			</clipPath>
			
				<path clip-path="url(#SVGID_24_)" fill="#FFFFFF" stroke="#236D9B" stroke-width="1.6" stroke-linecap="round" stroke-miterlimit="10" d="
				M1430.191,354.777c0,0-8.201,23.942-8.201,26.19c0,0-0.398,3.704,2.115,4.364c2.514,0.662,2.514,0,2.514,0l-7.938,10.188
				l1.984,6.084c0,0,18.651-15.346,20.504-22.092v-11.376l4.364-8.201L1430.191,354.777z"/>
		</g>
	</g>
	<g>
		<g>
			<defs>
				<rect id="SVGID_89_" x="1121.967" y="92.191" width="524.772" height="406.875"/>
			</defs>
			<clipPath id="SVGID_26_">
				<use xlink:href="#SVGID_89_"  overflow="visible"/>
			</clipPath>
			<path clip-path="url(#SVGID_26_)" fill="none" stroke="#236D9B" stroke-width="1.6" stroke-miterlimit="10" d="M1432.705,369.065
				l-3.836,14.153c0,0-0.795,2.514-3.439,2.248"/>
		</g>
	</g>
	<g>
		<g>
			<defs>
				<polygon id="SVGID_91_" points="1121.967,92.191 1646.739,92.191 1647.813,529.718 1123.04,529.718 				"/>
			</defs>
			<clipPath id="SVGID_28_">
				<use xlink:href="#SVGID_91_"  overflow="visible"/>
			</clipPath>
			<polygon clip-path="url(#SVGID_28_)" fill="#6EBDFF" stroke="#236D9B" stroke-width="1.6" stroke-miterlimit="10" points="
				1337.855,358.746 1340.929,535.141 1371.793,535.141 1373.698,467.484 1378.6,391.948 1386.8,392.609 1394.34,466.641 
				1398.945,536.391 1426.188,535.212 1426.751,361.127 			"/>
		</g>
	</g>
	<g>
		<g>
			<defs>
				<rect id="SVGID_93_" x="1121.967" y="92.191" width="524.772" height="406.875"/>
			</defs>
			<clipPath id="SVGID_30_">
				<use xlink:href="#SVGID_93_"  overflow="visible"/>
			</clipPath>
			
				<line clip-path="url(#SVGID_30_)" fill="none" stroke="#236D9B" stroke-width="1.6" stroke-miterlimit="10" x1="1396.855" y1="392.609" x2="1386.8" y2="392.609"/>
		</g>
	</g>
	<g>
		<g>
			<defs>
				<rect id="SVGID_95_" x="1121.967" y="92.191" width="524.772" height="406.875"/>
			</defs>
			<clipPath id="SVGID_32_">
				<use xlink:href="#SVGID_95_"  overflow="visible"/>
			</clipPath>
			
				<path clip-path="url(#SVGID_32_)" fill="#FFFFFF" stroke="#236D9B" stroke-width="1.6" stroke-linecap="round" stroke-miterlimit="10" d="
				M1357.302,142.195v34.527c0,0,4.763,25.133,25.002,25.928c20.107,0.793,26.06-23.018,26.06-23.018l0.662-37.967
				c0,0-3.439-8.994-12.963-10.318h-28.971C1367.222,131.347,1359.286,131.877,1357.302,142.195z"/>
		</g>
	</g>
	<g>
		<g>
			<defs>
				<rect id="SVGID_97_" x="1121.967" y="92.191" width="524.772" height="406.875"/>
			</defs>
			<clipPath id="SVGID_34_">
				<use xlink:href="#SVGID_97_"  overflow="visible"/>
			</clipPath>
			
				<path clip-path="url(#SVGID_34_)" fill="#FFFFFF" stroke="#236D9B" stroke-width="1.6" stroke-linecap="round" stroke-miterlimit="10" d="
				M1408.761,152.91l4.763,0.266c0,0,3.702,2.248,3.043,3.836l-1.722,12.17c0,0-2.776,5.688-6.481,5.16L1408.761,152.91z"/>
		</g>
	</g>
	<g>
		<g>
			<defs>
				<rect id="SVGID_99_" x="1121.967" y="92.191" width="524.772" height="406.875"/>
			</defs>
			<clipPath id="SVGID_36_">
				<use xlink:href="#SVGID_99_"  overflow="visible"/>
			</clipPath>
			
				<path clip-path="url(#SVGID_36_)" fill="#FFFFFF" stroke="#236D9B" stroke-width="1.6" stroke-linecap="round" stroke-miterlimit="10" d="
				M1357.302,152.91h-4.366c0,0-3.703,1.721-3.308,5.557c0.397,3.969,2.117,11.508,2.117,11.508s1.72,3.838,5.557,3.969V152.91
				L1357.302,152.91z"/>
		</g>
	</g>
	<g>
		<g>
			<defs>
				<rect id="SVGID_101_" x="1121.967" y="92.191" width="524.772" height="406.875"/>
			</defs>
			<clipPath id="SVGID_38_">
				<use xlink:href="#SVGID_101_"  overflow="visible"/>
			</clipPath>
			<path clip-path="url(#SVGID_38_)" fill="none" stroke="#236D9B" stroke-width="1.6" stroke-miterlimit="10" d="M1386.8,159.658
				v19.049c0,0-1.455,3.041-3.569,2.645c0,0-2.779,0.133-3.308-2.248l-0.266-2.381"/>
		</g>
	</g>
	<g>
		<g>
			<defs>
				<rect id="SVGID_103_" x="1121.967" y="92.191" width="524.772" height="406.875"/>
			</defs>
			<clipPath id="SVGID_40_">
				<use xlink:href="#SVGID_103_"  overflow="visible"/>
			</clipPath>
			<path clip-path="url(#SVGID_40_)" fill="none" stroke="#236D9B" stroke-width="1.6" stroke-miterlimit="10" d="M1375.556,188.497
				c0,0,7.146,4.895,15.875,0"/>
		</g>
	</g>
	<g>
		<g>
			<defs>
				<rect id="SVGID_105_" x="1121.967" y="92.191" width="524.772" height="406.875"/>
			</defs>
			<clipPath id="SVGID_42_">
				<use xlink:href="#SVGID_105_"  overflow="visible"/>
			</clipPath>
			
				<line clip-path="url(#SVGID_42_)" fill="none" stroke="#236D9B" stroke-width="1.6" stroke-miterlimit="10" x1="1364.18" y1="156.615" x2="1374.63" y2="156.615"/>
		</g>
	</g>
	<g>
		<g>
			<defs>
				<rect id="SVGID_107_" x="1121.967" y="92.191" width="524.772" height="406.875"/>
			</defs>
			<clipPath id="SVGID_44_">
				<use xlink:href="#SVGID_107_"  overflow="visible"/>
			</clipPath>
			
				<line clip-path="url(#SVGID_44_)" fill="none" stroke="#236D9B" stroke-width="1.6" stroke-miterlimit="10" x1="1391.96" y1="156.615" x2="1402.146" y2="156.615"/>
		</g>
	</g>
	<g>
		<g>
			<defs>
				<rect id="SVGID_109_" x="1121.967" y="92.191" width="524.772" height="406.875"/>
			</defs>
			<clipPath id="SVGID_46_">
				<use xlink:href="#SVGID_109_"  overflow="visible"/>
			</clipPath>
			<circle clip-path="url(#SVGID_46_)" fill="#236D9B" cx="1370.001" cy="164.683" r="2.381"/>
		</g>
	</g>
	<g>
		<g>
			<defs>
				<rect id="SVGID_111_" x="1121.967" y="92.191" width="524.772" height="406.875"/>
			</defs>
			<clipPath id="SVGID_48_">
				<use xlink:href="#SVGID_111_"  overflow="visible"/>
			</clipPath>
			<circle clip-path="url(#SVGID_48_)" fill="#236D9B" cx="1396.193" cy="164.683" r="2.381"/>
		</g>
	</g>
	<g>
		<g>
			<defs>
				<rect id="SVGID_113_" x="1121.967" y="92.191" width="524.772" height="406.875"/>
			</defs>
			<clipPath id="SVGID_50_">
				<use xlink:href="#SVGID_113_"  overflow="visible"/>
			</clipPath>
			
				<path clip-path="url(#SVGID_50_)" fill="#FFFFFF" stroke="#236D9B" stroke-width="1.6" stroke-linecap="round" stroke-miterlimit="10" d="
				M1366.429,121.958c0,0-1.455-2.779-1.321-4.895"/>
		</g>
	</g>
	<g>
		<g>
			<defs>
				<rect id="SVGID_115_" x="1121.967" y="92.191" width="524.772" height="406.875"/>
			</defs>
			<clipPath id="SVGID_52_">
				<use xlink:href="#SVGID_115_"  overflow="visible"/>
			</clipPath>
			<polygon clip-path="url(#SVGID_52_)" fill="#C5EDF9" points="1428.207,353.058 1430.059,348.824 1431.38,354.248 			"/>
		</g>
	</g>
	<g>
		<g>
			<defs>
				<rect id="SVGID_117_" x="1121.967" y="92.191" width="524.772" height="406.875"/>
			</defs>
			<clipPath id="SVGID_54_">
				<use xlink:href="#SVGID_117_"  overflow="visible"/>
			</clipPath>
			<polygon clip-path="url(#SVGID_54_)" fill="#C5EDF9" points="1337.063,350.677 1337.988,352.793 1336.003,353.453 			"/>
		</g>
	</g>
</g>
<path fill="#C5EDF9" stroke="#236D9B" stroke-width="1.179" stroke-miterlimit="10" d="M1389.943,551.995c0,0-0.07-0.6,0.557-7.026
	c0.745-4.723,4.319-12.347,8.043-15.391c3.719-3.045,21.534-4.517,27.451-0.276c5.185,3.716,11.126,22.616,7.747,24.309
	c-3.39,1.693-43.796,0.753-43.796,0.753v-2.368H1389.943z"/>
<path fill="#C5EDF9" stroke="#236D9B" stroke-width="1.179" stroke-miterlimit="10" d="M1333.693,551.995c0,0-0.07-0.6,0.557-7.026
	c0.745-4.723,4.319-12.347,8.043-15.391c3.719-3.045,21.534-4.517,27.451-0.276c5.185,3.716,11.126,22.616,7.747,24.309
	c-3.39,1.693-43.796,0.753-43.796,0.753v-2.368H1333.693z"/>
<path fill="#FFFFFF" stroke="#236D9B" stroke-linecap="round" stroke-miterlimit="10" d="M1582.945,436.141l2.913,65.182
	c0,0-16.536,7.674-19.843,7.674c-3.308,0-3.836-1.852-3.836-1.852l12.435-11.113l-4.366-24.207c0,0-7.724-36.919-5.803-45.747
	c8.574,0,19.5,0,19.5,0L1582.945,436.141z"/>
<g>
	<path fill="#FFFFFF" stroke="#236D9B" stroke-linecap="round" stroke-miterlimit="10" d="M1171.97,426.077h20.143
		c0,0-10.096,62.112-10.889,64.36c-0.793,2.25,14.154,8.863,13.229,10.848c-0.793,1.984-22.225-3.174-22.225-3.174l-2.646-3.176
		c0,0,1.138-39.123,2.382-57.279c0.065-8.908,1.648-11.579,1.648-11.579"/>
	<path fill="#FFFFFF" stroke="#236D9B" stroke-linecap="round" stroke-miterlimit="10" d="M1196.945,426.077
		c0,0,9.479,0,17.747-0.063c-0.414,11.973-4.498,40.215-4.498,40.215l-4.366,24.207l12.435,11.113c0,0-0.528,1.852-3.836,1.852
		c-3.307,0-19.843-7.674-19.843-7.674s-1.108-32.521-0.528-43.573C1194.493,443.821,1196.945,426.077,1196.945,426.077z"/>
	<path fill="#6EBDFF" stroke="#236D9B" stroke-miterlimit="10" d="M1194.584,495.729l-0.528,14.949h5.026l0.265-5.688
		c0,0,12.965,6.48,20.373,5.688c7.408-0.662,7.408-0.662,7.408-0.662s1.189-5.158-4.631-6.746s-4.232-1.588-4.232-1.588
		s-1.06,1.983-3.836,1.854C1211.517,503.27,1194.584,495.729,1194.584,495.729z"/>
	<path fill="#6EBDFF" stroke="#236D9B" stroke-miterlimit="10" d="M1169.582,494.936l-0.793,15.875h4.101l1.324-5.689
		c0,0,15.079,8.334,27.383,5.953c0,0,2.381-5.158-2.91-7.938c-5.293-2.777-5.424-3.836-5.424-3.836s3.571,2.646-0.795,2.25
		c-4.365-0.398-20.106-3.572-20.106-3.572L1169.582,494.936z"/>
</g>
<path fill="#FFFFFF" stroke="#236D9B" stroke-linecap="round" stroke-miterlimit="10" d="M1609.23,426.077
	c0,0-1.078,14.728-0.752,17.174c1.19,1.984,2.382,57.279,2.382,57.279l-2.646,3.176c0,0-21.432,5.158-22.225,3.174
	c-0.926-1.984,14.021-8.598,13.229-10.848c-0.793-2.248-8.287-42.781-8.287-58.031c0-3.132,0.128-11.924,0.128-11.924"/>
<path fill="#A2DFFE" stroke="#236D9B" stroke-miterlimit="10" d="M1566.014,509.13c-2.776,0.13-3.836-1.854-3.836-1.854
	s1.588,0-4.232,1.588s-4.631,6.746-4.631,6.746s0,0,7.408,0.662c7.408,0.792,20.373-5.688,20.373-5.688l0.265,5.688h5.026
	l-0.528-14.949C1585.858,501.323,1568.926,508.864,1566.014,509.13z"/>
<path fill="#A2DFFE" stroke="#236D9B" stroke-miterlimit="10" d="M1608.081,503.573c0,0-15.741,3.174-20.106,3.572
	c-4.366,0.396-0.795-2.25-0.795-2.25s-0.131,1.059-5.424,3.836c-5.291,2.779-2.91,7.938-2.91,7.938
	c12.304,2.381,27.383-5.953,27.383-5.953l1.324,5.689h4.101l-0.793-15.875L1608.081,503.573z"/>
<g>
	<path fill="#154A68" d="M1382.917,289.429c-0.164-0.264-0.399-0.516-0.551-0.674l-0.535-0.539
		c-0.715-0.698-1.443-1.358-2.164-2.021c-0.703-0.665-1.146-1.312-1.469-1.927c-0.146-0.296-0.154-0.52-0.078-0.98
		c0.08-0.43,0.195-1.012,0.217-1.532c0.06-1.048-0.016-2.083-0.202-3.107c-0.373-2.044-1.271-4.03-2.65-5.631
		c-0.332-0.399-0.732-0.786-1.074-1.11l-0.596-0.525l-0.613-0.477c-0.828-0.615-1.715-1.15-2.639-1.601
		c-1.85-0.899-3.854-0.731-5.9-0.913c0,0-11.698,1.018-16.922-6.384c0,0,3.924,10.069,15.752,11.802
		c-5.986,0.965-13.334-5.562-13.934-6.561c-1.238-1.624,2.094,9.362,12.99,11.163c-4.107,0.199-8.83-2.863-10.972-4.542
		c-1.827-1.434,2.054,9.445,11.859,9.894c-3.396,1.05-10.211-3.232-10.355-4.032c-0.371,1.072,2.045,7.409,10.789,9.882
		c-4.063,0.118-6.508-2.601-8.752-3.201c-0.639,1.201,6.035,8.602,9.779,8.002c-2.457,1.399-6.744-2.382-7.652-2.382
		c0,0,7.615,14.93,12.127,15.613c-0.889-0.154-0.021,0.07,0.865,0.262c0.892,0.186,1.799,0.292,2.711,0.328
		c0.457,0.021,0.914,0.014,1.371-0.003c0.457-0.019,0.914-0.058,1.367-0.114c0.455-0.064,0.909-0.132,1.358-0.238
		c0.453-0.09,0.889-0.221,1.342-0.36c0.459-0.161,0.902-0.416,1.263-0.789c0.356-0.372,0.596-0.858,0.692-1.358
		c0.104-0.502,0.08-1.007-0.004-1.486c-0.082-0.478-0.243-0.963-0.436-1.377c-0.172-0.373-0.223-0.733-0.164-1.084
		c0.029-0.174,0.096-0.334,0.18-0.465c0.049-0.072,0.074-0.101,0.146-0.162l0.264-0.228c0.19-0.17,0.396-0.412,0.519-0.696
		c0.118-0.293,0.157-0.574,0.147-0.873c-0.008-0.295-0.082-0.662-0.287-0.976c0.238-0.157,0.465-0.328,0.715-0.553
		c0.121-0.117,0.23-0.25,0.326-0.428c0.094-0.182,0.139-0.406,0.135-0.605c-0.018-0.398-0.146-0.668-0.252-0.914
		c-0.217-0.476-0.475-0.918-0.631-1.295c-0.035-0.093-0.062-0.178-0.068-0.229c-0.002-0.02-0.002-0.028,0-0.034
		c0,0,0,0.003-0.002,0.003c-0.012,0.01-0.248-0.519-0.057-0.638l0.604-0.397l0.332-0.225c0.103-0.081,0.185-0.129,0.312-0.238
		c0.449-0.379,0.844-0.457,1.055-1.098C1383.395,290.738,1383.263,289.972,1382.917,289.429z"/>
	<path fill="#154A68" d="M1385.791,289.429c0.162-0.264,0.398-0.516,0.551-0.674l0.533-0.539c0.715-0.699,1.445-1.357,2.164-2.021
		c0.705-0.666,1.145-1.311,1.471-1.926c0.146-0.297,0.15-0.521,0.076-0.98c-0.078-0.43-0.193-1.012-0.215-1.532
		c-0.06-1.048,0.014-2.083,0.201-3.107c0.373-2.045,1.271-4.03,2.649-5.63c0.334-0.4,0.733-0.787,1.076-1.112l0.594-0.524
		l0.613-0.477c0.83-0.615,1.715-1.15,2.641-1.602c1.851-0.898,3.853-0.73,5.9-0.912c0,0,11.7,1.018,16.922-6.384
		c0,0-3.924,10.069-15.752,11.802c5.986,0.965,13.332-5.561,13.932-6.561c1.24-1.625-2.092,9.362-12.987,11.162
		c4.108,0.2,8.83-2.863,10.969-4.541c1.83-1.434-2.051,9.446-11.857,9.894c3.396,1.048,10.211-3.232,10.355-4.032
		c0.371,1.07-2.045,7.41-10.791,9.881c4.063,0.119,6.512-2.6,8.752-3.2c0.641,1.201-6.035,8.602-9.779,8.001
		c2.459,1.4,6.746-2.381,7.654-2.381c0,0-7.617,14.931-12.127,15.612c0.889-0.153,0.021,0.07-0.865,0.262
		c-0.893,0.188-1.801,0.292-2.711,0.33c-0.457,0.021-0.914,0.014-1.371-0.004c-0.459-0.02-0.914-0.059-1.367-0.116
		c-0.457-0.063-0.912-0.131-1.358-0.237c-0.453-0.09-0.892-0.222-1.345-0.359c-0.457-0.162-0.901-0.416-1.26-0.789
		s-0.596-0.861-0.693-1.359c-0.104-0.5-0.082-1.007,0.002-1.484c0.084-0.479,0.244-0.963,0.438-1.377
		c0.17-0.373,0.226-0.735,0.164-1.086c-0.031-0.172-0.096-0.334-0.18-0.465c-0.052-0.071-0.076-0.1-0.146-0.162l-0.264-0.229
		c-0.19-0.168-0.396-0.409-0.517-0.695c-0.118-0.291-0.159-0.574-0.149-0.871c0.008-0.293,0.084-0.662,0.289-0.978
		c-0.238-0.156-0.465-0.326-0.717-0.551c-0.121-0.117-0.23-0.25-0.324-0.43c-0.096-0.18-0.139-0.404-0.139-0.605
		c0.021-0.396,0.147-0.668,0.256-0.913c0.215-0.474,0.476-0.918,0.631-1.295c0.035-0.092,0.062-0.177,0.068-0.229
		c0.002-0.019,0.002-0.027,0-0.033v0.002c0.014,0.012,0.25-0.518,0.06-0.635l-0.607-0.399l-0.33-0.224
		c-0.102-0.082-0.186-0.131-0.309-0.239c-0.451-0.378-0.849-0.456-1.058-1.097C1385.314,290.738,1385.445,289.97,1385.791,289.429z"
		/>
</g>
</svg>
