<?xml version="1.0" encoding="utf-8"?>
<!-- Generator: Adobe Illustrator 16.0.0, SVG Export Plug-In . SVG Version: 6.00 Build 0)  -->
<!DOCTYPE svg PUBLIC "-//W3C//DTD SVG 1.1//EN" "http://www.w3.org/Graphics/SVG/1.1/DTD/svg11.dtd">
<svg version="1.1" id="Livello_1" xmlns="http://www.w3.org/2000/svg" xmlns:xlink="http://www.w3.org/1999/xlink" x="0px" y="0px"
	 width="1072.272px" height="598.091px" viewBox="0 0 1072.272 598.091" enable-background="new 0 0 1072.272 598.091"
	 xml:space="preserve">
<path fill="#549CD2" d="M455.796,287.07c-0.246-0.399-0.602-0.778-0.828-1.013l-0.803-0.811c-1.073-1.052-2.168-2.042-3.252-3.038
	c-1.058-1.001-1.722-1.972-2.209-2.897c-0.219-0.443-0.229-0.78-0.114-1.471c0.117-0.645,0.293-1.521,0.322-2.303
	c0.089-1.574-0.021-3.132-0.304-4.671c-0.561-3.072-1.912-6.055-3.983-8.459c-0.499-0.602-1.103-1.182-1.614-1.671l-0.895-0.789
	l-0.922-0.717c-1.246-0.923-2.577-1.728-3.967-2.407c-2.778-1.348-5.789-1.098-8.867-1.37c0,0-17.583,1.528-25.432-9.595
	c0,0,5.896,15.134,23.674,17.736c-8.997,1.45-20.038-8.357-20.939-9.86c-1.862-2.441,3.146,14.069,19.521,16.775
	c-6.173,0.3-13.27-4.302-16.485-6.824c-2.749-2.155,3.086,14.195,17.822,14.869c-5.104,1.576-15.346-4.858-15.562-6.06
	c-0.56,1.611,3.071,11.137,16.215,14.851c-6.108,0.178-9.784-3.908-13.153-4.81c-0.962,1.803,9.069,12.927,14.695,12.025
	c-3.692,2.104-10.137-3.578-11.499-3.578c0,0,11.444,22.438,18.222,23.462c-1.334-0.231-0.029,0.106,1.304,0.393
	c1.338,0.282,2.704,0.44,4.073,0.494c0.686,0.031,1.373,0.021,2.06-0.003c0.688-0.029,1.374-0.087,2.058-0.174
	c0.683-0.097,1.367-0.197,2.04-0.357c0.683-0.137,1.336-0.332,2.016-0.544c0.691-0.241,1.358-0.624,1.897-1.184
	c0.537-0.56,0.895-1.295,1.042-2.045c0.155-0.751,0.122-1.511-0.006-2.232c-0.123-0.714-0.365-1.444-0.657-2.068
	c-0.254-0.56-0.333-1.103-0.244-1.63c0.045-0.26,0.144-0.503,0.27-0.699c0.075-0.107,0.112-0.148,0.219-0.242l0.396-0.344
	c0.287-0.254,0.594-0.618,0.775-1.047c0.18-0.438,0.24-0.864,0.225-1.31c-0.01-0.442-0.123-0.995-0.433-1.468
	c0.36-0.234,0.699-0.491,1.078-0.828c0.181-0.176,0.345-0.377,0.487-0.646c0.144-0.271,0.21-0.609,0.205-0.909
	c-0.03-0.599-0.223-1.005-0.381-1.373c-0.325-0.714-0.715-1.379-0.949-1.947c-0.052-0.137-0.091-0.266-0.101-0.342
	c-0.005-0.029-0.005-0.043-0.003-0.051c0,0,0,0.001-0.001,0.002c-0.018,0.017-0.374-0.777-0.086-0.955l0.913-0.6l0.496-0.338
	c0.154-0.121,0.278-0.193,0.464-0.357c0.678-0.568,1.271-0.686,1.589-1.649C456.512,289.036,456.315,287.882,455.796,287.07z"/>
<path fill="#549CD2" d="M616.478,287.07c0.246-0.399,0.602-0.778,0.828-1.013l0.803-0.811c1.073-1.052,2.168-2.042,3.252-3.038
	c1.058-1.001,1.722-1.972,2.209-2.897c0.219-0.443,0.229-0.78,0.114-1.471c-0.117-0.645-0.293-1.521-0.322-2.303
	c-0.089-1.574,0.021-3.132,0.304-4.671c0.561-3.072,1.912-6.055,3.983-8.459c0.499-0.602,1.103-1.182,1.614-1.671l0.895-0.789
	l0.922-0.717c1.246-0.923,2.577-1.728,3.967-2.407c2.778-1.348,5.789-1.098,8.867-1.37c0,0,17.583,1.528,25.432-9.595
	c0,0-5.896,15.134-23.674,17.736c8.997,1.45,20.038-8.357,20.939-9.86c1.862-2.441-3.146,14.069-19.521,16.775
	c6.173,0.3,13.27-4.302,16.485-6.824c2.749-2.155-3.086,14.195-17.822,14.869c5.104,1.576,15.346-4.858,15.562-6.06
	c0.56,1.611-3.071,11.137-16.215,14.851c6.108,0.178,9.784-3.908,13.153-4.81c0.962,1.803-9.069,12.927-14.695,12.025
	c3.692,2.104,10.137-3.578,11.499-3.578c0,0-11.444,22.438-18.222,23.462c1.334-0.231,0.029,0.106-1.304,0.393
	c-1.338,0.282-2.704,0.44-4.073,0.494c-0.686,0.031-1.373,0.021-2.06-0.003c-0.688-0.029-1.374-0.087-2.058-0.174
	c-0.683-0.097-1.367-0.197-2.04-0.357c-0.683-0.137-1.336-0.332-2.016-0.544c-0.691-0.241-1.358-0.624-1.897-1.184
	c-0.537-0.56-0.895-1.295-1.042-2.045c-0.155-0.751-0.122-1.511,0.006-2.232c0.123-0.714,0.365-1.444,0.657-2.068
	c0.254-0.56,0.333-1.103,0.244-1.63c-0.045-0.26-0.144-0.503-0.27-0.699c-0.075-0.107-0.112-0.148-0.219-0.242l-0.396-0.344
	c-0.287-0.254-0.594-0.618-0.775-1.047c-0.18-0.438-0.24-0.864-0.225-1.31c0.01-0.442,0.123-0.995,0.433-1.468
	c-0.36-0.234-0.699-0.491-1.078-0.828c-0.181-0.176-0.345-0.377-0.487-0.646c-0.144-0.271-0.21-0.609-0.205-0.909
	c0.03-0.599,0.223-1.005,0.381-1.373c0.325-0.714,0.715-1.379,0.949-1.947c0.052-0.137,0.091-0.266,0.101-0.342
	c0.005-0.029,0.005-0.043,0.003-0.051c0,0,0,0.001,0.001,0.002c0.018,0.017,0.374-0.777,0.086-0.955l-0.913-0.6l-0.496-0.338
	c-0.154-0.121-0.278-0.193-0.464-0.357c-0.678-0.568-1.271-0.686-1.589-1.649C615.762,289.036,615.958,287.882,616.478,287.07z"/>
<text transform="matrix(0.9981 0 0 1 460.3984 314.9888)" font-family="'NexaBold'" font-size="60">IPPIS</text>
</svg>
